<svg width="40" height="40" viewBox="0 0 40 40" fill="none" xmlns="http://www.w3.org/2000/svg">
<g clip-path="url(#clip0_1_298)">
<path d="M36.417 15.1488C36.6037 14.4811 36.698 13.7919 36.698 13.0918C36.698 8.88664 33.2763 5.46547 29.0705 5.46547C28.768 5.46547 28.4682 5.48281 28.1734 5.51727C27.57 4.01602 26.5713 2.71984 25.2566 1.74055C23.728 0.601875 21.9098 0 19.9988 0C18.0879 0 16.2698 0.601875 14.7412 1.74055C13.4266 2.71984 12.4278 4.01586 11.8244 5.51703C11.5302 5.48281 11.2303 5.46547 10.9273 5.46547C6.72273 5.46547 3.30195 8.88664 3.30195 13.0918C3.30195 13.7919 3.39633 14.4811 3.58305 15.1488C1.7425 16.298 0.625 18.2925 0.625 20.5016C0.625 23.9851 3.45867 26.8191 6.94172 26.8191H8.13781V29.3597C8.13781 30.2716 8.87961 31.0135 9.79141 31.0135H10.1001C10.31 31.7382 10.5995 32.4365 10.9652 33.0999L10.7486 33.3166C10.4357 33.6274 10.263 34.0424 10.2623 34.485C10.2616 34.9287 10.4336 35.3455 10.7464 35.6584L12.4779 37.3923C13.1242 38.0346 14.1734 38.0337 14.8156 37.3914L15.0363 37.1715C15.6991 37.5366 16.3966 37.8255 17.1208 38.0352V38.3441C17.1208 39.2572 17.8636 40 18.7766 40H21.2233C22.1363 40 22.8791 39.2571 22.8791 38.3441V38.035C23.6017 37.8253 24.2988 37.5365 24.9623 37.1716L25.1811 37.3906C25.8264 38.0359 26.8762 38.0359 27.5216 37.3905L29.2549 35.657C29.897 35.0106 29.8962 33.9616 29.2531 33.3184L29.0341 33.0993C29.3988 32.4359 29.6882 31.7379 29.8989 31.0135H30.2063C31.1194 31.0135 31.8621 30.2716 31.8621 29.3597V26.8191H33.0582C36.5412 26.8191 39.3749 23.9851 39.3749 20.5016C39.375 18.2925 38.2575 16.298 36.417 15.1488ZM30.2997 29.3597C30.2997 29.4084 30.256 29.451 30.2064 29.451H29.2941C28.929 29.451 28.6125 29.7039 28.5321 30.0602C28.3122 31.0337 27.929 31.958 27.3934 32.8073C27.1987 33.1159 27.2436 33.5184 27.5017 33.7764L28.1482 34.423C28.1824 34.4573 28.1816 34.5205 28.1483 34.554L26.4168 36.2857C26.3959 36.3066 26.3697 36.311 26.3515 36.311C26.3332 36.311 26.307 36.3066 26.2862 36.2858L25.6397 35.6391C25.3815 35.381 24.979 35.336 24.6703 35.5308C23.8201 36.0672 22.8971 36.4495 21.927 36.6671C21.5703 36.7471 21.3167 37.0638 21.3167 37.4295V38.3441C21.3167 38.393 21.2723 38.4375 21.2234 38.4375H18.7767C18.727 38.4375 18.6834 38.3938 18.6834 38.3441V37.4295C18.6834 37.0637 18.4298 36.747 18.0729 36.667C17.1009 36.4495 16.1783 36.0673 15.3306 35.5312C15.0222 35.3362 14.6198 35.3805 14.3615 35.6382L13.7119 36.2857C13.6771 36.3203 13.6152 36.3195 13.5816 36.2861L11.852 34.554C11.8296 34.5316 11.8249 34.5055 11.8249 34.4875C11.825 34.4625 11.8334 34.4413 11.8519 34.423L12.4984 33.7764C12.7569 33.518 12.8016 33.1148 12.6061 32.8061C12.0689 31.9577 11.6862 31.0343 11.4684 30.0616C11.3886 29.7047 11.0718 29.451 10.706 29.451H9.79141C9.74203 29.451 9.70031 29.4092 9.70031 29.3597V26.8191H13.3396C13.2548 27.2502 13.2105 27.6898 13.2105 28.1351C13.2105 31.8787 16.2558 34.9243 19.9989 34.9243C23.7433 34.9243 26.7895 31.8787 26.7895 28.1351C26.7895 27.6909 26.7448 27.2513 26.6592 26.8191H30.2998V29.3597H30.2997ZM33.0583 25.2566H23.5062C23.0748 25.2566 22.7249 25.6065 22.7249 26.0379C22.7249 26.4693 23.0748 26.8191 23.5062 26.8191H25.0573C25.1694 27.2484 25.227 27.6889 25.227 28.1351C25.227 31.0171 22.8816 33.3618 19.9989 33.3618C17.1173 33.3618 14.773 31.017 14.773 28.1351C14.773 27.687 14.8302 27.2464 14.9411 26.8191H16.4916C16.923 26.8191 17.2729 26.4693 17.2729 26.0379C17.2729 25.6065 16.923 25.2566 16.4916 25.2566H6.94172C4.32023 25.2566 2.1875 23.1235 2.1875 20.5016C2.1875 18.6645 3.21438 17.0245 4.86742 16.2216C5.23086 16.0451 5.39977 15.6205 5.2568 15.2425C4.99648 14.5544 4.86453 13.8309 4.86453 13.0919C4.86453 9.74828 7.58422 7.02805 10.9273 7.02805C11.3581 7.02805 11.7782 7.07141 12.176 7.15672C12.5698 7.24133 12.9636 7.01234 13.085 6.62812C14.0419 3.59828 16.8204 1.5625 19.9988 1.5625C23.1774 1.5625 25.9559 3.5982 26.9127 6.62812C27.034 7.01203 27.4271 7.24117 27.8209 7.15688C28.2213 7.07133 28.6417 7.02805 29.0704 7.02805C32.4147 7.02805 35.1355 9.74828 35.1355 13.0919C35.1355 13.8309 35.0035 14.5545 34.7432 15.2425C34.6002 15.6205 34.7691 16.0451 35.1326 16.2216C36.7856 17.0245 37.8125 18.6645 37.8125 20.5016C37.8125 23.1235 35.6798 25.2566 33.0583 25.2566Z" fill="white"/>
<path d="M28.251 11.084C27.8196 11.084 27.4697 11.4338 27.4697 11.8652V19.5718C27.4697 20.0032 27.8196 20.353 28.251 20.353C28.6824 20.353 29.0322 20.0032 29.0322 19.5718V11.8652C29.0322 11.4338 28.6825 11.084 28.251 11.084Z" fill="white"/>
<path d="M22.0292 11.084H19.8437C19.4193 11.084 19.0625 11.4395 19.0625 11.8652V19.7135C19.0625 20.1449 19.4123 20.4948 19.8437 20.4948C20.2752 20.4948 20.625 20.1449 20.625 19.7135V17.0816C21.1109 17.0787 21.7081 17.0755 22.0292 17.0755C23.7053 17.0755 25.0689 15.7316 25.0689 14.0798C25.0689 12.4279 23.7053 11.084 22.0292 11.084ZM22.0292 15.513C21.7095 15.513 21.1209 15.516 20.6366 15.519C20.6342 15.0197 20.6317 14.407 20.6317 14.0797C20.6317 13.8023 20.6298 13.1665 20.6279 12.6464H22.0293C22.83 12.6464 23.5065 13.3027 23.5065 14.0797C23.5065 14.8566 22.8299 15.513 22.0292 15.513Z" fill="white"/>
<path d="M13.6906 11.7001C13.6886 11.6947 13.6865 11.6892 13.6843 11.6839C13.5373 11.3192 13.1885 11.0834 12.7958 11.0834C12.4032 11.0834 12.0544 11.3192 11.9074 11.6839C11.9055 11.6886 11.9037 11.6932 11.9019 11.6979L8.95483 19.4355C8.80124 19.8387 9.00358 20.29 9.40678 20.4436C9.81006 20.5972 10.2613 20.3949 10.4149 19.9917L10.9571 18.5681H14.6129L15.1494 19.9894C15.2674 20.3022 15.5647 20.495 15.8804 20.495C15.972 20.495 16.0652 20.4788 16.1561 20.4445C16.5598 20.2921 16.7634 19.8413 16.6111 19.4377L13.6906 11.7001ZM11.5523 17.0056L12.7933 13.7474L14.0231 17.0056H11.5523Z" fill="white"/>
<path d="M19.9988 25.2567C19.5674 25.2567 19.2175 25.6065 19.2175 26.0379C19.2175 26.4693 19.5674 26.8192 19.9988 26.8192H20.0033C20.4347 26.8192 20.7824 26.4693 20.7824 26.0379C20.7824 25.6065 20.4303 25.2567 19.9988 25.2567Z" fill="white"/>
</g>
<defs>
<clipPath id="clip0_1_298">
<rect width="40" height="40" fill="white"/>
</clipPath>
</defs>
</svg>
