<svg width="37" height="33" viewBox="0 0 37 33" fill="none" xmlns="http://www.w3.org/2000/svg">
<path d="M14.5984 23.7474C14.4586 23.7474 14.3178 23.6994 14.2029 23.6015L10.2502 20.2357C10.1138 20.1195 10.0354 19.9497 10.0354 19.7704C10.0354 19.5915 10.1141 19.4217 10.2502 19.3055L14.2029 15.9397C14.4596 15.7208 14.8452 15.7519 15.064 16.0085C15.2825 16.2656 15.2518 16.6511 14.9948 16.8696L11.5884 19.7704L14.9948 22.6713C15.2518 22.8901 15.2825 23.2757 15.064 23.5323C14.943 23.6745 14.7712 23.7474 14.5984 23.7474Z" fill="white"/>
<path d="M22.4016 23.7474C22.2287 23.7474 22.0569 23.6745 21.9363 23.5323C21.7174 23.2757 21.7484 22.8901 22.0051 22.6713L25.4115 19.7704L22.0051 16.8696C21.7484 16.6511 21.7174 16.2656 21.9363 16.0085C22.1548 15.7519 22.5406 15.7208 22.797 15.9397L26.7498 19.3055C26.8861 19.4217 26.9645 19.5915 26.9645 19.7704C26.9645 19.9497 26.8861 20.1195 26.7498 20.2357L22.797 23.6015C22.6821 23.6994 22.5413 23.7474 22.4016 23.7474Z" fill="white"/>
<path d="M17.1007 26.272C17.0588 26.272 17.0165 26.2675 16.9739 26.2587C16.6439 26.1891 16.4326 25.865 16.5021 25.535L18.9656 13.8385C19.0352 13.5086 19.359 13.2972 19.6893 13.3668C20.0193 13.4363 20.2306 13.7601 20.1611 14.0904L17.6976 25.7869C17.6369 26.0746 17.3833 26.272 17.1007 26.272Z" fill="white"/>
<path d="M32.8986 32.6443H4.10142C1.84005 32.6443 0 30.8046 0 28.5429V4.10142C0 1.84005 1.84005 0 4.10142 0H32.8986C35.16 0 37 1.84005 37 4.10142V28.5429C37 30.8046 35.16 32.6443 32.8986 32.6443ZM4.10142 1.2217C2.51362 1.2217 1.2217 2.51362 1.2217 4.10142V28.5429C1.2217 30.1307 2.51362 31.4226 4.10142 31.4226H32.8986C34.4864 31.4226 35.7783 30.1307 35.7783 28.5429V4.10142C35.7783 2.51362 34.4864 1.2217 32.8986 1.2217H4.10142Z" fill="white"/>
<path d="M36.3892 9.78143H0.610849C0.273382 9.78143 0 9.50804 0 9.17057C0 8.83345 0.273382 8.55972 0.610849 8.55972H36.3892C36.7266 8.55972 37 8.83345 37 9.17057C37 9.50804 36.7266 9.78143 36.3892 9.78143Z" fill="white"/>
<path d="M10.4369 6.85843C9.37131 6.85843 8.50378 5.9909 8.50378 4.92532C8.50378 3.85941 9.37131 2.99222 10.4369 2.99222C11.5028 2.99222 12.37 3.85941 12.37 4.92532C12.37 5.9909 11.5028 6.85843 10.4369 6.85843ZM10.4369 4.21392C10.0449 4.21392 9.72548 4.53298 9.72548 4.92532C9.72548 5.31767 10.0449 5.63673 10.4369 5.63673C10.8292 5.63673 11.1483 5.31767 11.1483 4.92532C11.1483 4.53298 10.8292 4.21392 10.4369 4.21392Z" fill="white"/>
<path d="M4.49756 6.83966C3.43164 6.83966 2.56445 5.97247 2.56445 4.90656C2.56445 3.84064 3.43164 2.97345 4.49756 2.97345C5.56348 2.97345 6.43066 3.84064 6.43066 4.90656C6.43066 5.97247 5.56348 6.83966 4.49756 6.83966ZM4.49756 4.19515C4.10555 4.19515 3.78615 4.51455 3.78615 4.90656C3.78615 5.2989 4.10555 5.61796 4.49756 5.61796C4.88991 5.61796 5.20897 5.2989 5.20897 4.90656C5.20897 4.51455 4.88991 4.19515 4.49756 4.19515Z" fill="white"/>
<path d="M16.3764 6.87686C15.3108 6.87686 14.4436 6.00967 14.4436 4.94375C14.4436 3.87817 15.3108 3.01099 16.3764 3.01099C17.4423 3.01099 18.3095 3.87817 18.3095 4.94375C18.3095 6.00967 17.4423 6.87686 16.3764 6.87686ZM16.3764 4.23234C15.9844 4.23234 15.6653 4.5514 15.6653 4.94375C15.6653 5.3361 15.9844 5.65516 16.3764 5.65516C16.7687 5.65516 17.0878 5.3361 17.0878 4.94375C17.0878 4.5514 16.7687 4.23234 16.3764 4.23234Z" fill="white"/>
</svg>
