<svg width="44" height="44" viewBox="0 0 44 44" fill="none" xmlns="http://www.w3.org/2000/svg">
<path d="M5.40542 6.22637L6.25585 6.63637C6.68717 6.84425 7.03908 7.19625 7.24696 7.62748L7.65697 8.47809C8.24865 9.70519 9.99901 9.70837 10.5922 8.478L11.0022 7.62748C11.21 7.19625 11.5621 6.84425 11.9933 6.63637L12.8438 6.22637C14.0711 5.63477 14.0742 3.88441 12.8439 3.29118L11.9933 2.88118C11.5621 2.67329 11.2101 2.32129 11.0022 1.89006L10.5922 1.03954C10.0006 -0.187555 8.25019 -0.190907 7.65697 1.03954L7.24696 1.89006C7.03908 2.32129 6.68708 2.67329 6.25585 2.88118L5.40533 3.29118C4.17823 3.88286 4.17505 5.63323 5.40542 6.22637ZM5.96521 4.45236L6.81564 4.04236C7.50855 3.70832 8.07411 3.14277 8.40815 2.44994L8.81815 1.59942C8.9419 1.34281 9.30679 1.34178 9.43097 1.59942L9.84098 2.45003C10.175 3.14285 10.7406 3.70841 11.4334 4.04244L12.2839 4.45245C12.5406 4.5762 12.5415 4.94109 12.2839 5.06527L11.4334 5.47527C10.7406 5.80931 10.175 6.37486 9.84098 7.06769V7.06778L9.43097 7.9183C9.30722 8.1749 8.94233 8.17594 8.81815 7.91838L8.40815 7.06786C8.07411 6.37495 7.50855 5.8094 6.81564 5.47536L5.96521 5.06535C5.7086 4.94143 5.70766 4.57654 5.96521 4.45236ZM22.6416 21.2404C24.4844 23.0833 27.483 23.0834 29.3259 21.2404C31.1688 19.3975 31.1688 16.399 29.3259 14.5561C27.4832 12.7132 24.4846 12.7132 22.6416 14.5561C20.7987 16.3989 20.7987 19.3975 22.6416 21.2404ZM28.4144 15.4676C29.7547 16.8079 29.7547 18.9887 28.4144 20.329C27.0741 21.6693 24.8933 21.6692 23.553 20.329C22.2127 18.9887 22.2127 16.8079 23.553 15.4676C24.8931 14.1276 27.074 14.1271 28.4144 15.4676ZM43.0783 33.117L42.2279 32.707C41.7966 32.4991 41.4446 32.1471 41.2367 31.7158L40.8267 30.8652C40.2352 29.6381 38.4847 29.6349 37.8916 30.8652L37.4816 31.7158C37.2738 32.147 36.9218 32.4991 36.4905 32.707L35.64 33.117C34.4129 33.7086 34.4097 35.459 35.6401 36.0521L36.4905 36.4622C36.9218 36.67 37.2738 37.022 37.4816 37.4533L37.8916 38.3038C38.4832 39.531 40.2337 39.5341 40.8267 38.3038L41.2367 37.4533C41.2367 37.4532 41.2367 37.4532 41.2367 37.4532C41.4446 37.0219 41.7966 36.6699 42.2279 36.4621L43.0784 36.0521C44.3056 35.4604 44.3087 33.71 43.0783 33.117ZM42.5185 34.891L41.668 35.301C40.9751 35.635 40.4095 36.2006 40.0756 36.8935L39.6655 37.744C39.5418 38.0006 39.1768 38.0015 39.0527 37.744L38.6426 36.8935C38.3086 36.2006 37.7431 35.6351 37.0501 35.301L36.1997 34.891C35.9431 34.7672 35.9421 34.4023 36.1996 34.2781L37.0502 33.8681C37.7431 33.5341 38.3086 32.9685 38.6426 32.2756L39.0527 31.4251C39.1763 31.1685 39.5413 31.1676 39.6655 31.4251L40.0756 32.2756C40.4095 32.9685 40.9751 33.5341 41.6681 33.8681L42.5185 34.2781C42.7751 34.4018 42.7761 34.7667 42.5185 34.891ZM35.6266 21.7458C37.8534 18.0168 38.9956 14.34 39.33 9.82438C39.5524 6.82114 37.0582 4.32956 34.0576 4.55205C31.4916 4.74206 29.2946 5.17415 27.1435 5.91201C26.8068 6.02751 26.6275 6.39403 26.7429 6.73082C26.8584 7.06752 27.2248 7.24678 27.5617 7.13137C28.225 6.90389 28.8938 6.70736 29.5783 6.53892C31.2643 9.7051 34.1665 12.6118 37.3416 14.3029C36.7588 16.6826 35.8395 18.8749 34.5198 21.0851C32.3991 24.6364 29.227 28.2031 24.8855 31.9077L11.9757 18.9977C16.3539 13.8712 20.5646 10.3502 24.7628 8.29427C25.0824 8.13769 25.2147 7.75166 25.0582 7.43198C24.9016 7.11221 24.5155 6.98012 24.1959 7.13653C20.4392 8.97627 16.6901 11.9262 12.8456 16.0786C9.08989 13.8376 6.32314 14.2841 4.64126 15.0817C2.15811 16.2594 0.384193 19.0065 0.0118268 22.2509C-0.158501 23.7353 1.54813 24.6982 2.73406 23.7888C4.20401 22.6614 5.67612 22.3798 7.31786 22.9233C6.80946 24.0536 6.94455 25.3946 7.6849 26.4019C6.94292 26.7137 6.26968 27.1619 5.70396 27.7278C2.64675 30.7847 2.78476 34.9071 2.48158 38.3148C2.32405 40.0855 3.8026 41.5568 5.56715 41.4004C5.9653 41.365 6.37238 41.3361 6.82501 41.3047C7.1801 41.28 7.44797 40.9722 7.42339 40.6171C7.39873 40.262 7.09124 39.9938 6.73581 40.0187C6.27639 40.0506 5.86277 40.0799 5.45302 40.1164C4.48692 40.2026 3.67945 39.3977 3.76565 38.429C4.06557 35.0554 3.92223 31.3322 6.61532 28.6392C7.17701 28.0774 7.87387 27.6603 8.64662 27.4202L10.1215 28.895C8.83285 29.5469 7.93274 31.083 7.67201 32.4812C7.18999 35.0667 8.86568 36.6827 11.4008 36.21C12.7961 35.9498 14.3344 35.0512 14.987 33.7605L16.4618 35.2354C16.2218 36.0081 15.8046 36.705 15.2428 37.2667C13.8982 38.6113 12.1994 39.3726 9.73459 39.7354C9.38241 39.7872 9.13896 40.1147 9.19077 40.4669C9.24277 40.8203 9.57139 41.0625 9.92227 41.0107C11.6335 40.7588 14.1412 40.1912 16.1543 38.1782C16.7199 37.6126 17.1681 36.9395 17.4798 36.1978C18.4738 36.9284 19.8114 37.0801 20.9588 36.564C21.5024 38.2059 21.2206 39.678 20.0931 41.1481C19.1854 42.3317 20.1437 44.0409 21.631 43.8703C24.8753 43.4979 27.6224 41.724 28.8002 39.2408C29.5977 37.5594 30.044 34.7936 27.8049 31.0393C31.208 27.8919 33.7916 24.8189 35.6266 21.7458ZM30.8922 6.25429C31.9212 6.06042 32.9968 5.92318 34.1528 5.83759C36.3713 5.6737 38.2085 7.51345 38.0444 9.72925C37.9602 10.8665 37.8218 11.9475 37.6255 12.9883C34.9134 11.4581 32.4237 8.96939 30.8922 6.25429ZM1.94945 22.766C1.66466 22.9844 1.2519 22.7503 1.29238 22.3979C1.61438 19.5922 3.10926 17.235 5.19358 16.2465C7.11565 15.3348 9.44335 15.6164 11.9598 17.054C10.6691 18.5045 9.36669 20.0916 8.04901 21.8163C5.89036 20.9976 3.84059 21.3156 1.94945 22.766ZM13.4056 33.7751C12.8285 34.3522 11.9907 34.7888 11.1645 34.9428C10.3686 35.0911 9.6923 34.9564 9.30894 34.5731C8.92557 34.1897 8.79082 33.5134 8.93924 32.7175C9.09324 31.8913 9.5298 31.0535 10.107 30.4764C10.39 30.1933 10.7334 29.9932 11.1116 29.8852L13.9967 32.7703C13.8888 33.1486 13.6887 33.492 13.4056 33.7751ZM20.8408 35.1458C19.9814 35.7945 18.759 35.7097 17.9975 34.9482L8.93382 25.8845C8.17233 25.123 8.08743 23.9006 8.73625 23.0412C9.54527 21.9696 10.3474 20.9536 11.1438 19.9888L23.8939 32.739C22.93 33.5342 21.9134 34.3359 20.8408 35.1458ZM27.6356 38.6885C26.6471 40.7728 24.2899 42.2676 21.4841 42.5896C21.1311 42.6304 20.898 42.2169 21.116 41.9327C22.5664 40.0416 22.8844 37.9919 22.0658 35.8334C23.7939 34.5134 25.3801 33.2119 26.8289 31.924C28.2657 34.4397 28.547 36.7668 27.6356 38.6885Z" fill="white"/>
</svg>
