<svg width="44" height="44" viewBox="0 0 44 44" fill="none" xmlns="http://www.w3.org/2000/svg">
<g clip-path="url(#clip0_1_314)">
<path d="M11.3014 30.7665C12.228 30.4869 13.0752 31.1568 13.1029 31.1792L13.5939 31.5919L14.4233 30.6051L13.9299 30.1905C13.8741 30.1435 12.5432 29.0463 10.9296 29.5323C10.1286 29.7737 9.56217 30.4031 9.4514 31.1751C9.34785 31.8964 9.6604 32.5903 10.267 32.9857C10.2955 33.0043 10.3254 33.0206 10.3564 33.0344C10.3918 33.0502 11.2332 33.4246 12.1811 33.7744C12.811 34.0067 13.1328 34.3609 13.064 34.7463C12.9939 35.1389 12.5286 35.5451 11.8713 35.5451C11.2275 35.5451 10.6065 35.2842 10.2105 34.8471L9.77762 34.3695L8.82251 35.2352L9.25529 35.7128C9.89166 36.4149 10.8696 36.8341 11.8713 36.8341C13.0853 36.8341 14.1435 36.034 14.333 34.9729C14.477 34.1661 14.1046 33.1098 12.6272 32.565C11.8538 32.2797 11.1352 31.9685 10.9358 31.8811C10.7749 31.7586 10.6974 31.5662 10.7272 31.3581C10.7462 31.2264 10.84 30.9055 11.3014 30.7665Z" fill="white"/>
<path d="M21.1566 36.8341V30.6388H19.8675V31.3758C19.4289 31.0922 18.907 30.9268 18.347 30.9268C16.7977 30.9268 15.5372 32.1873 15.5372 33.7365C15.5372 35.2857 16.7977 36.5462 18.347 36.5462C18.907 36.5462 19.4289 36.3808 19.8675 36.0972V36.8341H21.1566ZM18.3469 35.2572C17.5084 35.2572 16.8262 34.575 16.8262 33.7365C16.8262 32.898 17.5084 32.216 18.3469 32.216C19.1854 32.216 19.8675 32.8981 19.8675 33.7365C19.8675 34.5749 19.1854 35.2572 18.3469 35.2572Z" fill="white"/>
<path d="M28.0652 36.8341V30.6388H26.7761V31.3758C26.3374 31.0922 25.8155 30.9268 25.2554 30.9268C23.7062 30.9268 22.4458 32.1873 22.4458 33.7365C22.4458 35.2857 23.7062 36.5462 25.2554 36.5462C25.8156 36.5462 26.3375 36.3808 26.7761 36.0972V36.8341H28.0652ZM25.2554 35.2572C24.4169 35.2572 23.7349 34.575 23.7349 33.7365C23.7349 32.898 24.417 32.216 25.2554 32.216C26.0938 32.216 26.7761 32.8981 26.7761 33.7365C26.7761 34.5749 26.0939 35.2572 25.2554 35.2572Z" fill="white"/>
<path d="M32.4203 35.5449C31.7764 35.5449 31.1554 35.284 30.7594 34.847L30.3266 34.3694L29.3715 35.2351L29.8042 35.7127C30.4406 36.4148 31.4187 36.834 32.4203 36.834C33.6343 36.834 34.6925 36.0338 34.882 34.9728C35.0261 34.166 34.6536 33.1097 33.1763 32.5649C32.4028 32.2796 31.6842 31.9684 31.4848 31.881C31.324 31.7585 31.2464 31.566 31.2762 31.358C31.2951 31.2264 31.3888 30.9053 31.8503 30.7664C32.776 30.4869 33.6227 31.1557 33.6517 31.1791L34.1427 31.5918L34.9722 30.6051L34.4788 30.1903C34.423 30.1434 33.0921 29.0462 31.4786 29.5322C30.6775 29.7735 30.111 30.403 30.0003 31.1749C29.8967 31.8963 30.2093 32.5902 30.816 32.9856C30.8444 33.0042 30.8743 33.0204 30.9054 33.0343C30.9407 33.0501 31.7821 33.4245 32.7301 33.7743C33.3599 34.0066 33.6817 34.3608 33.6129 34.7462C33.5429 35.1389 33.0776 35.5449 32.4203 35.5449Z" fill="white"/>
<path d="M29.584 38.4703H30.873V39.7594H29.584V38.4703Z" fill="white"/>
<path d="M44 23.7815C44 21.818 43.149 19.9563 41.665 18.6737C40.3631 17.5485 38.6947 16.968 36.9913 17.0303C36.9053 16.0541 36.4996 15.1216 35.8288 14.3928C34.9876 13.4788 33.7921 12.9547 32.5487 12.9547C31.8855 12.9547 31.2349 13.1029 30.6436 13.3822C30.3667 11.0592 29.3202 8.91089 27.6333 7.24258C25.676 5.30675 23.0817 4.24061 20.3284 4.24061C17.8924 4.24061 15.4819 5.19839 13.5411 6.93733L14.4013 7.89743C16.1055 6.37057 18.2104 5.52968 20.3285 5.52968C22.7402 5.52968 25.0125 6.46347 26.7269 8.15911C28.44 9.85328 29.3992 12.1123 29.4279 14.52L29.4443 15.8964L30.491 15.0024C31.0637 14.5132 31.7946 14.2437 32.5488 14.2437C33.4458 14.2437 34.2738 14.6067 34.8805 15.2658C35.489 15.9269 35.7832 16.785 35.7087 17.6818L35.6415 18.4904L36.4444 18.373C38.0215 18.1422 39.6169 18.6073 40.8222 19.6491C42.0225 20.6866 42.7109 22.1928 42.7109 23.7815C42.7109 25.2134 42.1535 26.5417 41.1414 27.522C40.2689 28.367 39.1305 28.8896 37.89 29.0255C37.5769 27.5742 36.2839 26.483 34.7402 26.483H9.25977C7.76583 26.483 6.50641 27.5049 6.14298 28.8863C4.86784 28.4612 3.72273 27.6735 2.86808 26.6193C1.8498 25.3633 1.28906 23.7791 1.28906 22.1587C1.28906 18.4889 3.70992 16.3196 5.97541 15.513C7.33648 15.0284 8.77645 14.9491 10.1396 15.2835C11.5972 15.6411 12.8871 16.4671 13.87 17.6726L14.869 16.858C13.8809 15.646 12.624 14.7722 11.2367 14.2744C11.3258 12.3183 12.1352 10.3783 13.5438 8.76608L12.5731 7.91797C11.0397 9.67298 10.1306 11.7816 9.96643 13.9308C8.53377 13.6642 7.01465 13.7745 5.54305 14.2984C3.95648 14.8632 2.60021 15.8518 1.62078 17.1573C0.560484 18.5709 0 20.3003 0 22.1587C0 24.0737 0.663008 25.9462 1.86682 27.4312C2.94284 28.7585 4.40945 29.7286 6.03711 30.2031V36.5368C6.03711 38.3138 7.48275 39.7594 9.25977 39.7594H28.2949V38.4704H9.25977C8.19363 38.4704 7.32617 37.6029 7.32617 36.5368V29.7058C7.32617 28.6396 8.19363 27.7723 9.25977 27.7723H34.7402C35.8064 27.7723 36.6738 28.6396 36.6738 29.7058V36.5368C36.6738 37.6029 35.8064 38.4704 34.7402 38.4704H32.1621V39.7594H34.7402C36.5173 39.7594 37.9629 38.3138 37.9629 36.5368V30.3136C41.3956 29.9701 44 27.2109 44 23.7815Z" fill="white"/>
<path d="M26.5315 12.7098H27.8206V13.9989H26.5315V12.7098Z" fill="white"/>
<path d="M25.2424 10.1317H26.5315V11.4208H25.2424V10.1317Z" fill="white"/>
</g>
<defs>
<clipPath id="clip0_1_314">
<rect width="44" height="44" fill="white"/>
</clipPath>
</defs>
</svg>
