<svg width="112" height="112" viewBox="0 0 112 112" fill="none" xmlns="http://www.w3.org/2000/svg">
<path d="M31.2131 22.9508H79.8689V42.2295L75.2787 39.0164L69.3115 41.3115V46.3606L65.6394 47.7377H62.8853L60.5902 53.7049L63.8033 57.8361L61.0492 62.8852L63.8033 69.3115L67.0164 68.3934L69.3115 72.0656V74.8197L76.1967 77.5738L79.4099 74.8197L79.8689 83.541H31.2131V55.082L50.4918 53.7049V36.7213L47.7377 34.4262H31.2131V22.9508Z" fill="#3B94EC"/>
<path d="M32.8915 49.3038L39.263 45.625C39.9798 45.2113 39.9802 44.1738 39.263 43.7598L32.8915 40.081C32.176 39.6677 31.2761 40.184 31.2761 41.0136V48.371C31.2761 49.206 32.1831 49.713 32.8915 49.3038ZM33.43 42.8791L36.5707 44.6924L33.43 46.5057V42.8791Z" fill="#FFA000"/>
<path d="M55.5335 88.3077C53.1583 88.3077 51.2258 90.2402 51.2258 92.6154C51.2258 94.9907 53.1583 96.9231 55.5335 96.9231C57.9088 96.9231 59.8412 94.9907 59.8412 92.6154C59.8412 90.2402 57.9088 88.3077 55.5335 88.3077ZM55.5335 94.7693C54.3459 94.7693 53.3797 93.8031 53.3797 92.6154C53.3797 91.4278 54.3459 90.4616 55.5335 90.4616C56.7212 90.4616 57.6874 91.4278 57.6874 92.6154C57.6874 93.8031 56.7212 94.7693 55.5335 94.7693Z" fill="#FFA000"/>
<path d="M52.2307 18.3077H58.764C59.3589 18.3077 59.8409 17.8254 59.8409 17.2307C59.8409 16.6361 59.3589 16.1538 58.764 16.1538H52.2307C51.6361 16.1538 51.1538 16.6361 51.1538 17.2307C51.1538 17.8254 51.6361 18.3077 52.2307 18.3077Z" fill="black"/>
<path d="M79.9483 47.3291C73.9391 47.3291 69.05 52.2149 69.05 58.2202C69.05 64.2295 73.9388 69.1185 79.9483 69.1185C85.9536 69.1185 90.8392 64.2297 90.8392 58.2202C90.8392 52.2147 85.9534 47.3291 79.9483 47.3291ZM79.9483 66.9644C75.1267 66.9644 71.2039 63.0416 71.2039 58.22C71.2039 53.4023 75.1267 49.4827 79.9483 49.4827C84.766 49.4827 88.6854 53.4023 88.6854 58.22C88.6854 63.0416 84.766 66.9644 79.9483 66.9644Z" fill="black"/>
<path d="M79.9466 52.193C76.6204 52.193 73.9141 54.8976 73.9141 58.222C73.9141 61.5484 76.6202 64.2547 79.9466 64.2547C83.271 64.2547 85.9756 61.5486 85.9756 58.222C85.9756 54.8976 83.2708 52.193 79.9466 52.193ZM79.9466 62.1007C77.8078 62.1007 76.0679 60.3606 76.0679 58.2218C76.0679 56.085 77.8078 54.3466 79.9466 54.3466C82.0834 54.3466 83.8218 56.085 83.8218 58.2218C83.8218 60.3606 82.0834 62.1007 79.9466 62.1007Z" fill="black"/>
<path d="M100.671 62.3651C100.796 61.7399 100.353 61.1432 99.719 61.0821C98.2413 60.9391 97.1269 59.7088 97.1269 58.2205C97.1269 56.7356 98.2413 55.5084 99.719 55.3653C100.355 55.304 100.796 54.7061 100.671 54.0827C100.127 51.3532 99.069 48.7996 97.5264 46.493C97.1734 45.9649 96.4387 45.8542 95.9459 46.2608C94.8367 47.176 93.1631 47.1387 92.0944 46.07C91.0429 45.023 90.9602 43.368 91.9023 42.2202C92.304 41.7306 92.1993 40.9977 91.6697 40.6425C89.3735 39.1025 86.822 38.0441 84.0858 37.4968C83.4627 37.3712 82.8639 37.8139 82.8027 38.449C82.7071 39.437 82.1253 40.2604 81.3075 40.6992V19.4564C81.3077 14.0724 76.9277 9.69238 71.5437 9.69238H39.4512C34.0672 9.69238 29.6871 14.0724 29.6871 19.4564V33.3847H23.5129C20.9397 33.3847 18.8462 35.4782 18.8462 38.0514V51.3336C18.8462 53.9065 20.9397 56.0001 23.5129 56.0001H29.6871V92.5437C29.6871 97.9277 34.0672 102.308 39.4512 102.308H71.5437C76.9277 102.308 81.3077 97.9275 81.3077 92.5435V75.7483C82.1255 76.187 82.7073 77.0104 82.8029 77.9986C82.8639 78.6297 83.4568 79.0753 84.0855 78.9508C86.8155 78.4061 89.3689 77.3479 91.675 75.8058C92.2042 75.4521 92.313 74.7172 91.907 74.2253C90.9617 73.0792 91.0422 71.4249 92.0978 70.3738C93.1644 69.3027 94.8384 69.271 95.9481 70.1816C96.4411 70.5864 97.1738 70.475 97.5264 69.9477C99.0683 67.6425 100.126 65.091 100.671 62.3651ZM39.4512 11.8462H71.5437C75.7398 11.8462 79.1539 15.2601 79.1539 19.4564V21.5385H31.841V19.4564C31.841 15.2601 35.2548 11.8462 39.4512 11.8462ZM21 51.3333V42.0001H25.3077C25.9024 42.0001 26.3847 41.5178 26.3847 40.9232C26.3847 40.3285 25.9024 39.8462 25.3077 39.8462H21V38.0514C21 36.6659 22.1274 35.5385 23.5129 35.5385H47.5641C48.9496 35.5385 50.077 36.6656 50.077 38.0514V48.4616H40.3847C39.79 48.4616 39.3077 48.9439 39.3077 49.5385C39.3077 50.1332 39.79 50.6155 40.3847 50.6155H50.077V51.3333C50.077 52.7189 48.9496 53.8462 47.5641 53.8462H23.5129C22.1274 53.8462 21 52.7191 21 51.3333ZM47.5641 56.0001C50.1373 56.0001 52.2308 53.9065 52.2308 51.3333V38.0512C52.2308 35.478 50.1373 33.3845 47.5641 33.3845H31.841V23.6922H79.1539V40.9311C78.0416 40.616 77.2025 39.6535 77.086 38.449C77.0246 37.8121 76.425 37.3717 75.8029 37.4968C73.0671 38.0439 70.5152 39.1023 68.2188 40.6425C67.6907 40.9968 67.5834 41.7291 67.9864 42.2202C68.9285 43.368 68.8458 45.023 67.7923 46.0719C66.7288 47.1357 65.055 47.1784 63.943 46.261C63.4502 45.8544 62.7155 45.9651 62.3625 46.4932C60.8201 48.7998 59.7622 51.3534 59.2175 54.0829C59.093 54.7069 59.5347 55.3042 60.1699 55.3656C61.6476 55.5086 62.762 56.7358 62.762 58.2207C62.762 59.709 61.6476 60.9393 60.1699 61.0823C59.5351 61.1435 59.093 61.7407 59.2175 62.3653C59.7626 65.0913 60.8206 67.6427 62.3625 69.9482C62.7164 70.4772 63.4493 70.5855 63.9408 70.1821C65.0466 69.2747 66.7195 69.2979 67.7943 70.3776C68.846 71.4246 68.9287 73.0799 67.9866 74.2274C67.5834 74.7185 67.6909 75.4519 68.2203 75.806C70.5254 77.3473 73.0766 78.4053 75.8031 78.951C76.4325 79.0751 77.0252 78.6301 77.0862 77.9986C77.2027 76.794 78.0416 75.8314 79.1541 75.5165V82.9232H31.841V56.0001H47.5641ZM71.5437 100.154H39.4512C35.2548 100.154 31.841 96.7399 31.841 92.5437V85.077H79.1539V92.5435C79.1539 96.7399 75.7398 100.154 71.5437 100.154ZM96.292 67.8682C94.4348 66.9843 92.1306 67.2888 90.5751 68.851C89.0247 70.3947 88.6775 72.6892 89.5897 74.5744C88.0581 75.4808 86.416 76.1609 84.6873 76.6053C83.9981 74.6302 82.1318 73.2524 79.9476 73.2524C77.7603 73.2524 75.8917 74.6298 75.202 76.6049C73.4753 76.1603 71.8345 75.4797 70.3035 74.5733C71.9176 71.222 69.4226 67.3784 65.7621 67.3784C65.0094 67.3784 64.2684 67.5484 63.5969 67.868C62.6892 66.336 62.0082 64.6939 61.5634 62.9661C63.5385 62.2762 64.9159 60.4075 64.9159 58.2203C64.9159 56.0358 63.5381 54.1697 61.563 53.4807C62.0075 51.7508 62.6884 50.1076 63.596 48.5745C64.2676 48.8952 65.0087 49.0656 65.7626 49.0656C69.4387 49.0656 71.9116 45.211 70.3033 41.873C71.8297 40.9677 73.4705 40.2876 75.202 39.8424C75.8917 41.8174 77.7603 43.195 79.9478 43.195C82.132 43.195 83.9983 41.8176 84.6873 39.8424C86.4188 40.2876 88.0598 40.9677 89.586 41.873C87.9771 45.2121 90.4512 49.0656 94.1268 49.0656C94.8806 49.0656 95.6215 48.8952 96.2933 48.5745C97.201 50.1076 97.8818 51.7508 98.3263 53.4807C96.3513 54.1697 94.9734 56.0361 94.9734 58.2203C94.9734 60.4075 96.3511 62.2762 98.3259 62.9661C97.8807 64.6939 97.1997 66.336 96.292 67.8682Z" fill="black"/>
<path d="M97.4618 16.1538C94.4927 16.1538 92.0771 18.5693 92.0771 21.5384C92.0771 24.5075 94.4927 26.923 97.4618 26.923C100.431 26.923 102.846 24.5075 102.846 21.5384C102.846 18.5693 100.431 16.1538 97.4618 16.1538ZM97.4618 24.7692C95.6801 24.7692 94.231 23.3199 94.231 21.5384C94.231 19.757 95.6801 18.3077 97.4618 18.3077C99.2432 18.3077 100.693 19.757 100.693 21.5384C100.693 23.3199 99.2432 24.7692 97.4618 24.7692Z" fill="#FFA000"/>
<path d="M16.6925 75.3848C13.1296 75.3848 10.231 78.2834 10.231 81.8463C10.231 85.4092 13.1296 88.3078 16.6925 88.3078C20.2554 88.3078 23.154 85.4092 23.154 81.8463C23.154 78.2834 20.2554 75.3848 16.6925 75.3848ZM16.6925 86.154C14.3172 86.154 12.3848 84.2216 12.3848 81.8463C12.3848 79.471 14.3172 77.5386 16.6925 77.5386C19.0678 77.5386 21.0002 79.471 21.0002 81.8463C21.0002 84.2216 19.0678 86.154 16.6925 86.154Z" fill="black"/>
<path d="M91.5387 12.9232C92.4309 12.9232 93.1541 12.1999 93.1541 11.3078C93.1541 10.4156 92.4309 9.69238 91.5387 9.69238C90.6466 9.69238 89.9233 10.4156 89.9233 11.3078C89.9233 12.1999 90.6466 12.9232 91.5387 12.9232Z" fill="black"/>
<path d="M95.8463 35.5385C96.7385 35.5385 97.4617 34.8153 97.4617 33.9231C97.4617 33.031 96.7385 32.3077 95.8463 32.3077C94.9542 32.3077 94.231 33.031 94.231 33.9231C94.231 34.8153 94.9542 35.5385 95.8463 35.5385Z" fill="#FFA000"/>
<path d="M99.0773 80.7693C99.9694 80.7693 100.693 80.0461 100.693 79.154C100.693 78.2618 99.9694 77.5386 99.0773 77.5386C98.1851 77.5386 97.4619 78.2618 97.4619 79.154C97.4619 80.0461 98.1851 80.7693 99.0773 80.7693Z" fill="black"/>
<path d="M11.8463 15.077C12.7385 15.077 13.4617 14.3537 13.4617 13.4616C13.4617 12.5694 12.7385 11.8462 11.8463 11.8462C10.9542 11.8462 10.231 12.5694 10.231 13.4616C10.231 14.3537 10.9542 15.077 11.8463 15.077Z" fill="black"/>
<path d="M22.6154 25.8462C23.5075 25.8462 24.2308 25.123 24.2308 24.2309C24.2308 23.3387 23.5075 22.6155 22.6154 22.6155C21.7232 22.6155 21 23.3387 21 24.2309C21 25.123 21.7232 25.8462 22.6154 25.8462Z" fill="black"/>
<path d="M12.9235 63.5385C13.8156 63.5385 14.5389 62.8153 14.5389 61.9231C14.5389 61.031 13.8156 60.3077 12.9235 60.3077C12.0313 60.3077 11.3081 61.031 11.3081 61.9231C11.3081 62.8153 12.0313 63.5385 12.9235 63.5385Z" fill="#FFA000"/>
<path d="M24.7692 102.308C25.6613 102.308 26.3846 101.585 26.3846 100.692C26.3846 99.8003 25.6613 99.077 24.7692 99.077C23.877 99.077 23.1538 99.8003 23.1538 100.692C23.1538 101.585 23.877 102.308 24.7692 102.308Z" fill="black"/>
<path d="M87.2311 100.154C88.1233 100.154 88.8465 99.4306 88.8465 98.5385C88.8465 97.6463 88.1233 96.9231 87.2311 96.9231C86.339 96.9231 85.6157 97.6463 85.6157 98.5385C85.6157 99.4306 86.339 100.154 87.2311 100.154Z" fill="#FFA000"/>
<path d="M52.231 76.4617H37.1541C36.5594 76.4617 36.0771 76.9437 36.0771 77.5386C36.0771 78.1335 36.5594 78.6155 37.1541 78.6155H52.231C52.8257 78.6155 53.3079 78.1335 53.3079 77.5386C53.3079 76.9437 52.8257 76.4617 52.231 76.4617Z" fill="black"/>
<path d="M37.1541 74.3078H52.231C52.8257 74.3078 53.3079 73.8257 53.3079 73.2309C53.3079 72.636 52.8257 72.1539 52.231 72.1539H37.1541C36.5594 72.1539 36.0771 72.636 36.0771 73.2309C36.0771 73.8257 36.5594 74.3078 37.1541 74.3078Z" fill="black"/>
<path d="M37.1541 70H52.231C52.8257 70 53.3079 69.518 53.3079 68.9231C53.3079 68.3282 52.8257 67.8462 52.231 67.8462H37.1541C36.5594 67.8462 36.0771 68.3282 36.0771 68.9231C36.0771 69.518 36.5594 70 37.1541 70Z" fill="#FFA000"/>
<path d="M37.1541 65.6924H52.231C52.8257 65.6924 53.3079 65.2104 53.3079 64.6155C53.3079 64.0206 52.8257 63.5386 52.231 63.5386H37.1541C36.5594 63.5386 36.0771 64.0206 36.0771 64.6155C36.0771 65.2104 36.5594 65.6924 37.1541 65.6924Z" fill="#FFA000"/>
</svg>
