<svg width="107" height="85" viewBox="0 0 107 85" fill="none" xmlns="http://www.w3.org/2000/svg">
<path d="M59.3267 72.6932H65.6831V83.2873H59.3267V72.6932Z" fill="#E3F0FF"/>
<path d="M42.6947 58.1764C42.5754 57.5275 42.5098 56.8598 42.5098 56.1762C42.5098 50.1065 47.4303 45.1859 53.5 45.1859C59.5698 45.1859 64.4903 50.1065 64.4903 56.1762C64.4903 56.8596 64.4247 57.5275 64.3054 58.1764H83.3353V52.4676H77.779C77.1711 48.4546 75.5911 44.7613 73.2881 41.633L77.2191 37.702L71.9743 32.4571L68.0433 36.3881C64.915 34.0851 61.2216 32.5052 57.2085 31.8972V26.3409H49.7912V31.8972C45.7783 32.5052 42.0849 34.0851 38.9566 36.3881L35.0256 32.4571L29.7809 37.702L33.7119 41.633C31.4089 44.7613 29.829 48.4546 29.2211 52.4676H23.6648V58.1764H42.6947Z" fill="#3B94EC"/>
<path d="M102.953 0.555298H24.2733C23.4077 0.555298 22.7059 1.25707 22.7059 2.12268C22.7059 2.98829 23.4077 3.69006 24.2733 3.69006H102.953C103.456 3.69006 103.865 4.09905 103.865 4.60186V56.6091H84.9026V52.4677C84.9026 51.602 84.2011 50.9003 83.3352 50.9003H79.0906C78.4254 47.6725 77.1409 44.5741 75.3236 41.814L78.3273 38.8103C78.9395 38.1982 78.9395 37.2057 78.3273 36.5938L73.0825 31.3489C72.4701 30.7368 71.4779 30.7368 70.8658 31.3489L67.8622 34.3527C65.1022 32.5351 62.004 31.2507 58.776 30.5859V26.3413C58.776 25.4756 58.0745 24.7739 57.2086 24.7739H49.7914C48.9258 24.7739 48.224 25.4756 48.224 26.3413V30.5859C44.996 31.2509 41.8978 32.5353 39.1376 34.3527L36.1338 31.3489C35.84 31.0549 35.4412 30.8898 35.0256 30.8898C34.6099 30.8898 34.2112 31.0549 33.9173 31.3489L28.6727 36.5938C28.0605 37.2059 28.0605 38.1984 28.6727 38.8103L31.6762 41.814C29.8586 44.5741 28.5742 47.6725 27.9092 50.9003H23.6646C22.7989 50.9003 22.0972 51.602 22.0972 52.4677V56.6091H3.13477V4.60186C3.13477 4.09905 3.54375 3.69006 4.04657 3.69006H18.0038C18.8694 3.69006 19.5712 2.98829 19.5712 2.12268C19.5712 1.25707 18.8694 0.555298 18.0038 0.555298H4.04657C1.81524 0.555298 0 2.37054 0 4.60186V70.569C0 72.8004 1.81524 74.6156 4.04657 74.6156H39.7398V81.31H36.7338C35.8682 81.31 35.1664 82.0118 35.1664 82.8774C35.1664 83.743 35.8682 84.4448 36.7338 84.4448H70.2662C71.132 84.4448 71.8336 83.743 71.8336 82.8774C71.8336 82.0118 71.132 81.31 70.2662 81.31H67.26V74.6156H79.4837C80.3495 74.6156 81.051 73.9138 81.051 73.0482C81.051 72.1826 80.3495 71.4808 79.4837 71.4808H4.04657C3.54375 71.4808 3.13477 71.0716 3.13477 70.569V59.7436H103.865V70.569C103.865 71.0719 103.456 71.4808 102.953 71.4808H85.7532C84.8874 71.4808 84.1858 72.1826 84.1858 73.0482C84.1858 73.9138 84.8874 74.6156 85.7532 74.6156H102.953C105.185 74.6156 107 72.8004 107 70.569V4.60186C107 2.37054 105.185 0.555298 102.953 0.555298ZM64.1252 81.3102H42.8746V74.6158H64.1252V81.3102ZM44.0771 56.1763C44.0771 50.9805 48.3042 46.7534 53.5 46.7534C58.6958 46.7534 62.9229 50.9805 62.9229 56.1763C62.9229 56.3199 62.9193 56.4643 62.9125 56.6091H44.0876C44.0807 56.4643 44.0771 56.3199 44.0771 56.1763ZM66.0499 56.6091C66.0549 56.4645 66.0577 56.3201 66.0577 56.1763C66.0577 49.252 60.4243 43.6186 53.5 43.6186C46.5757 43.6186 40.9423 49.252 40.9423 56.1763C40.9423 56.3201 40.9448 56.4645 40.9501 56.6091H25.2321V54.035H29.2208C29.9957 54.035 30.6545 53.4687 30.7707 52.7025C31.3234 49.0531 32.7769 45.5465 34.974 42.5624C35.4333 41.9386 35.3679 41.0728 34.8201 40.5248L31.9976 37.7023L35.0258 34.6741L37.8483 37.4966C38.3961 38.0444 39.2621 38.1098 39.8859 37.6504C42.8702 35.4534 46.3766 33.9999 50.0261 33.4471C50.7924 33.3309 51.3587 32.6724 51.3587 31.8973V27.9086H55.6413V31.8973C55.6413 32.6722 56.2076 33.3309 56.9739 33.4471C60.6232 33.9999 64.1296 35.4534 67.1141 37.6504C67.7377 38.11 68.6037 38.0446 69.1517 37.4966L71.9742 34.6741L75.0024 37.7023L72.1797 40.5248C71.6319 41.0726 71.5665 41.9386 72.0258 42.5624C74.2229 45.5467 75.6764 49.0531 76.2294 52.7025C76.3453 53.4689 77.0041 54.035 77.779 54.035H81.7679V56.6091H66.0499Z" fill="white"/>
<path d="M33.4009 12.2916C33.4009 11.426 32.6991 10.7242 31.8335 10.7242H11.3674C10.5018 10.7242 9.80005 11.426 9.80005 12.2916C9.80005 13.1572 10.5018 13.859 11.3674 13.859H31.8335C32.6991 13.859 33.4009 13.1572 33.4009 12.2916Z" fill="#FFA000"/>
<path d="M11.3674 17.749C10.5018 17.749 9.80005 18.4508 9.80005 19.3164C9.80005 20.182 10.5018 20.8838 11.3674 20.8838H18.0037C18.8693 20.8838 19.5711 20.182 19.5711 19.3164C19.5711 18.4508 18.8693 17.749 18.0037 17.749H11.3674Z" fill="white"/>
<path d="M91.0078 20.8838H97.6441C98.5099 20.8838 99.2115 20.182 99.2115 19.3164C99.2115 18.4508 98.5099 17.749 97.6441 17.749H91.0078C90.142 17.749 89.4404 18.4508 89.4404 19.3164C89.4404 20.182 90.142 20.8838 91.0078 20.8838Z" fill="#FFA000"/>
<path d="M91.0078 27.9086H97.6441C98.5099 27.9086 99.2115 27.2068 99.2115 26.3412C99.2115 25.4756 98.5099 24.7738 97.6441 24.7738H91.0078C90.142 24.7738 89.4404 25.4756 89.4404 26.3412C89.4404 27.2068 90.142 27.9086 91.0078 27.9086Z" fill="#FFA000"/>
<path d="M91.0078 34.9332H97.6441C98.5099 34.9332 99.2115 34.2315 99.2115 33.3658C99.2115 32.5002 98.5099 31.7985 97.6441 31.7985H91.0078C90.142 31.7985 89.4404 32.5002 89.4404 33.3658C89.4404 34.2315 90.142 34.9332 91.0078 34.9332Z" fill="white"/>
</svg>
