<svg width="102" height="79" viewBox="0 0 102 79" fill="none" xmlns="http://www.w3.org/2000/svg">
<g clip-path="url(#clip0_706_436)">
<path opacity="0.1" d="M73.064 65.9412C56.7817 61.6603 37.037 56.5696 21.4632 52.5714C11.1822 49.9304 8.88895 36.315 17.7292 30.3634L47.9288 10.0333C53.6642 6.17333 61.424 7.78393 65.1324 13.6034L86.5961 47.3207C92.6185 56.7887 83.8993 68.7905 73.064 65.9412Z" fill="#0087F3"/>
<path d="M80.5373 30.0659C80.8427 28.9739 80.997 27.8467 80.997 26.7017C80.997 19.8243 75.4008 14.229 68.5222 14.229C68.0276 14.229 67.5372 14.2574 67.0551 14.3137C66.0682 11.8584 64.4348 9.73855 62.2847 8.13693C59.7846 6.27464 56.8111 5.29028 53.6856 5.29028C50.5603 5.29028 47.5869 6.27464 45.0868 8.13693C42.9368 9.73855 41.3033 11.8582 40.3164 14.3133C39.8354 14.2574 39.3449 14.229 38.8492 14.229C31.9728 14.229 26.3781 19.8243 26.3781 26.7017C26.3781 27.8467 26.5325 28.9739 26.8378 30.0659C23.8277 31.9455 22 35.2074 22 38.8203C22 44.5176 26.6344 49.1526 32.3309 49.1526H34.2871V53.3077C34.2871 54.7992 35.5003 56.0125 36.9915 56.0125H37.4964C37.8397 57.1977 38.3131 58.3397 38.9112 59.4248L38.557 59.7791C38.0453 60.2875 37.7629 60.9662 37.7616 61.6901C37.7605 62.4157 38.0418 63.0975 38.5534 63.6091L41.3853 66.445C42.4423 67.4954 44.1582 67.4939 45.2086 66.4434L45.5695 66.0838C46.6536 66.6809 47.7943 67.1535 48.9786 67.4964V68.0015C48.9786 69.4949 50.1935 70.7098 51.6866 70.7098H55.6882C57.1815 70.7098 58.3962 69.4948 58.3962 68.0015V67.496C59.5781 67.1531 60.7182 66.6807 61.8033 66.084L62.1612 66.4422C63.2166 67.4976 64.9336 67.4974 65.989 66.442L68.8239 63.6068C69.8739 62.5497 69.8726 60.834 68.8209 59.782L68.4628 59.4238C69.0592 58.3388 69.5325 57.1972 69.8771 56.0125H70.3799C71.8732 56.0125 73.0879 54.7992 73.0879 53.3077V49.1526H75.0441C80.7406 49.1526 85.375 44.5176 85.375 38.8203C85.3751 35.2074 83.5475 31.9455 80.5373 30.0659ZM70.5326 53.3077C70.5326 53.3873 70.4611 53.457 70.38 53.457H68.888C68.2908 53.457 67.7732 53.8706 67.6417 54.4533C67.282 56.0455 66.6553 57.5571 65.7793 58.9461C65.4609 59.451 65.5344 60.1091 65.9565 60.5312L67.0138 61.5887C67.0698 61.6447 67.0684 61.7481 67.014 61.8029L64.1822 64.6351C64.1479 64.6693 64.1051 64.6765 64.0753 64.6765C64.0454 64.6765 64.0026 64.6692 63.9685 64.6352L62.9112 63.5776C62.4889 63.1555 61.8306 63.0819 61.3258 63.4004C59.9353 64.2777 58.4257 64.903 56.8392 65.2589C56.2558 65.3897 55.841 65.9077 55.841 66.5057V68.0015C55.841 68.0815 55.7683 68.1543 55.6885 68.1543H51.6869C51.6055 68.1543 51.5343 68.0829 51.5343 68.0015V66.5057C51.5343 65.9074 51.1195 65.3895 50.5358 65.2587C48.9462 64.9029 47.4372 64.2778 46.0509 63.4012C45.5464 63.0821 44.8884 63.1547 44.4658 63.5761L43.4034 64.6351C43.3466 64.6917 43.2452 64.6904 43.1903 64.6357L40.3615 61.8029C40.325 61.7663 40.3173 61.7237 40.3173 61.6941C40.3175 61.6533 40.3313 61.6186 40.3614 61.5887L41.4189 60.5312C41.8415 60.1085 41.9146 59.4492 41.5949 58.9442C40.7164 57.5567 40.0904 56.0465 39.7343 54.4556C39.6037 53.8719 39.0856 53.457 38.4874 53.457H36.9915C36.9108 53.457 36.8426 53.3887 36.8426 53.3077V49.1526H42.7946C42.6559 49.8576 42.5835 50.5767 42.5835 51.3048C42.5835 57.4274 47.5639 62.4085 53.6858 62.4085C59.8097 62.4085 64.7918 57.4274 64.7918 51.3048C64.7918 50.5785 64.7187 49.8595 64.5786 49.1526H70.5327V53.3077H70.5326ZM75.0442 46.5972H59.4219C58.7163 46.5972 58.1441 47.1694 58.1441 47.8749C58.1441 48.5805 58.7163 49.1526 59.4219 49.1526H61.9587C62.142 49.8546 62.2363 50.5751 62.2363 51.3048C62.2363 56.0184 58.4004 59.8531 53.6858 59.8531C48.973 59.8531 45.1389 56.0182 45.1389 51.3048C45.1389 50.5719 45.2324 49.8514 45.4138 49.1526H47.9497C48.6552 49.1526 49.2274 48.5805 49.2274 47.8749C49.2274 47.1694 48.6552 46.5972 47.9497 46.5972H32.3309C28.0435 46.5972 24.5554 43.1085 24.5554 38.8203C24.5554 35.8158 26.2349 33.1337 28.9384 31.8206C29.5328 31.5318 29.8091 30.8374 29.5752 30.2192C29.1495 29.0938 28.9337 27.9105 28.9337 26.7019C28.9337 21.2335 33.3817 16.7846 38.8493 16.7846C39.5539 16.7846 40.2409 16.8555 40.8915 16.995C41.5356 17.1334 42.1796 16.7589 42.3782 16.1305C43.9431 11.1752 48.4874 7.84573 53.6856 7.84573C58.8842 7.84573 63.4283 11.1751 64.9933 16.1305C65.1916 16.7584 65.8345 17.1331 66.4786 16.9953C67.1334 16.8553 67.821 16.7846 68.5221 16.7846C73.9916 16.7846 78.4414 21.2335 78.4414 26.7019C78.4414 27.9105 78.2256 29.0939 77.7999 30.2192C77.5661 30.8374 77.8423 31.5318 78.4367 31.8206C81.1402 33.1337 82.8197 35.8158 82.8197 38.8203C82.8197 43.1085 79.3316 46.5972 75.0442 46.5972Z" fill="#2787F5"/>
<path d="M67.182 23.418C66.4765 23.418 65.9043 23.9901 65.9043 24.6957V37.2997C65.9043 38.0052 66.4765 38.5774 67.182 38.5774C67.8876 38.5774 68.4597 38.0052 68.4597 37.2997V24.6957C68.4597 23.9901 67.8877 23.418 67.182 23.418Z" fill="#F9A100"/>
<path d="M57.0063 23.418H53.432C52.7378 23.418 52.1543 23.9995 52.1543 24.6957V37.5315C52.1543 38.237 52.7265 38.8092 53.432 38.8092C54.1376 38.8092 54.7097 38.237 54.7097 37.5315V33.2271C55.5045 33.2222 56.4812 33.2171 57.0063 33.2171C59.7476 33.2171 61.9777 31.0191 61.9777 28.3175C61.9777 25.6159 59.7476 23.418 57.0063 23.418ZM57.0063 30.6615C56.4835 30.6615 55.5208 30.6665 54.7287 30.6714C54.7248 29.8548 54.7207 28.8526 54.7207 28.3174C54.7207 27.8638 54.7175 26.8239 54.7145 25.9733H57.0065C58.316 25.9733 59.4224 27.0467 59.4224 28.3174C59.4224 29.5881 58.3159 30.6615 57.0063 30.6615Z" fill="#F9A100"/>
<path d="M43.3684 24.4256C43.3651 24.4168 43.3616 24.4079 43.3581 24.3992C43.1176 23.8026 42.5472 23.417 41.905 23.417C41.2629 23.417 40.6925 23.8026 40.452 24.3992C40.4489 24.4068 40.4459 24.4144 40.4431 24.422L35.6231 37.0768C35.3719 37.7362 35.7028 38.4743 36.3623 38.7255C37.0218 38.9767 37.7598 38.6458 38.011 37.9864L38.8978 35.6582H44.8768L45.7542 37.9827C45.9472 38.4943 46.4334 38.8096 46.9498 38.8096C47.0996 38.8096 47.2521 38.783 47.4007 38.7269C48.0609 38.4778 48.394 37.7405 48.1448 37.0803L43.3684 24.4256ZM39.8712 33.1028L41.9008 27.7739L43.9122 33.1028H39.8712Z" fill="#F9A100"/>
<path d="M53.6859 46.597C52.9804 46.597 52.4082 47.1692 52.4082 47.8748C52.4082 48.5803 52.9804 49.1525 53.6859 49.1525H53.6933C54.3989 49.1525 54.9675 48.5803 54.9675 47.8748C54.9675 47.1692 54.3916 46.597 53.6859 46.597Z" fill="#2787F5"/>
</g>
<defs>
<clipPath id="clip0_706_436">
<rect width="102" height="79" fill="white"/>
</clipPath>
</defs>
</svg>
