<svg width="102" height="79" viewBox="0 0 102 79" fill="none" xmlns="http://www.w3.org/2000/svg">
<g clip-path="url(#clip0_706_426)">
<path opacity="0.1" d="M81.8662 60.3117C64.9601 62.8963 44.4995 66.1242 28.3681 68.6863C17.7183 70.3761 10.0826 58.6106 15.9196 49.4931L35.8603 18.3476C39.6478 12.4336 47.5314 10.8014 53.3381 14.7284L86.9608 37.4904C96.3978 43.8839 93.1167 58.5922 81.8662 60.3117Z" fill="#0087F3"/>
<path d="M44.4756 56.7243C44.2419 56.7243 44.0065 56.6435 43.8144 56.4791L37.2048 50.8216C36.9768 50.6263 36.8457 50.3409 36.8457 50.0396C36.8457 49.7388 36.9774 49.4534 37.2048 49.258L43.8144 43.6006C44.2436 43.2328 44.8882 43.2849 45.2542 43.7164C45.6195 44.1484 45.5682 44.7964 45.1385 45.1637L39.4426 50.0396L45.1385 54.9155C45.5682 55.2833 45.6195 55.9313 45.2542 56.3627C45.0518 56.6017 44.7646 56.7243 44.4756 56.7243Z" fill="#F9A100"/>
<path d="M57.5239 56.7243C57.2349 56.7243 56.9476 56.6017 56.7458 56.3627C56.3799 55.9313 56.4318 55.2833 56.861 54.9155L62.5569 50.0396L56.861 45.1637C56.4318 44.7964 56.3799 44.1484 56.7458 43.7164C57.1112 43.2849 57.7564 43.2328 58.1851 43.6006L64.7946 49.258C65.0226 49.4534 65.1537 49.7388 65.1537 50.0396C65.1537 50.3409 65.0226 50.6263 64.7946 50.8216L58.1851 56.4791C57.993 56.6435 57.7576 56.7243 57.5239 56.7243Z" fill="#F9A100"/>
<path d="M48.6598 60.9678C48.5896 60.9678 48.519 60.9603 48.4477 60.9454C47.896 60.8285 47.5426 60.2837 47.6589 59.729L51.7782 40.069C51.8945 39.5144 52.4359 39.1592 52.9883 39.276C53.54 39.3929 53.8934 39.9372 53.7771 40.4924L49.6578 60.1524C49.5564 60.636 49.1323 60.9678 48.6598 60.9678Z" fill="#F9A100"/>
<path d="M75.0762 71.6787H26.9235C23.1422 71.6787 20.0654 68.5864 20.0654 64.7848V23.7023C20.0654 19.9013 23.1422 16.8085 26.9235 16.8085H75.0762C78.8575 16.8085 81.9343 19.9013 81.9343 23.7023V64.7848C81.9343 68.5864 78.8575 71.6787 75.0762 71.6787ZM26.9235 18.862C24.2685 18.862 22.1083 21.0335 22.1083 23.7023V64.7848C22.1083 67.4537 24.2685 69.6252 26.9235 69.6252H75.0762C77.7312 69.6252 79.8914 67.4537 79.8914 64.7848V23.7023C79.8914 21.0335 77.7312 18.862 75.0762 18.862H26.9235Z" fill="#2787F5"/>
<path d="M80.9129 33.2495H21.0868C20.5226 33.2495 20.0654 32.79 20.0654 32.2228C20.0654 31.6561 20.5226 31.196 21.0868 31.196H80.9129C81.4771 31.196 81.9343 31.6561 81.9343 32.2228C81.9343 32.79 81.4771 33.2495 80.9129 33.2495Z" fill="#2787F5"/>
<path d="M37.5176 28.3364C35.7358 28.3364 34.2852 26.8782 34.2852 25.0872C34.2852 23.2955 35.7358 21.8379 37.5176 21.8379C39.2999 21.8379 40.75 23.2955 40.75 25.0872C40.75 26.8782 39.2999 28.3364 37.5176 28.3364ZM37.5176 23.8914C36.8621 23.8914 36.328 24.4277 36.328 25.0872C36.328 25.7466 36.8621 26.2829 37.5176 26.2829C38.1736 26.2829 38.7071 25.7466 38.7071 25.0872C38.7071 24.4277 38.1736 23.8914 37.5176 23.8914Z" fill="#F9A100"/>
<path d="M27.5859 28.3049C25.8036 28.3049 24.3535 26.8473 24.3535 25.0557C24.3535 23.264 25.8036 21.8064 27.5859 21.8064C29.3683 21.8064 30.8183 23.264 30.8183 25.0557C30.8183 26.8473 29.3683 28.3049 27.5859 28.3049ZM27.5859 23.8599C26.9304 23.8599 26.3964 24.3968 26.3964 25.0557C26.3964 25.7151 26.9304 26.2514 27.5859 26.2514C28.242 26.2514 28.7755 25.7151 28.7755 25.0557C28.7755 24.3968 28.242 23.8599 27.5859 23.8599Z" fill="#F9A100"/>
<path d="M47.4486 28.3675C45.6668 28.3675 44.2168 26.9098 44.2168 25.1182C44.2168 23.3271 45.6668 21.8695 47.4486 21.8695C49.231 21.8695 50.681 23.3271 50.681 25.1182C50.681 26.9098 49.231 28.3675 47.4486 28.3675ZM47.4486 23.9224C46.7931 23.9224 46.2596 24.4587 46.2596 25.1182C46.2596 25.7777 46.7931 26.314 47.4486 26.314C48.1047 26.314 48.6382 25.7777 48.6382 25.1182C48.6382 24.4587 48.1047 23.9224 47.4486 23.9224Z" fill="#F9A100"/>
</g>
<defs>
<clipPath id="clip0_706_426">
<rect width="102" height="79" fill="white"/>
</clipPath>
</defs>
</svg>
