<svg width="102" height="79" viewBox="0 0 102 79" fill="none" xmlns="http://www.w3.org/2000/svg">
<g clip-path="url(#clip0_706_455)">
<path opacity="0.1" d="M74.98 70.0218C58.6908 65.7391 38.9377 60.6462 23.3574 56.6464C13.0721 54.0043 10.7779 40.3831 19.6218 34.429L49.8341 14.0903C55.572 10.2288 63.3351 11.84 67.045 17.6619L88.5178 51.3935C94.5427 60.8654 85.8198 72.8723 74.98 70.0218Z" fill="#0087F3"/>
<path d="M72.5537 38.1538C75.8834 32.5777 77.5913 27.08 78.0913 20.3278C78.4238 15.8371 74.6944 12.1115 70.2076 12.4441C66.3707 12.7283 63.0855 13.3744 59.869 14.4777C59.3655 14.6504 59.0975 15.1984 59.27 15.702C59.4427 16.2055 59.9905 16.4735 60.4944 16.301C61.4862 15.9608 62.4863 15.6669 63.5098 15.4151C66.0307 20.1494 70.3704 24.4957 75.1181 27.0245C74.2467 30.5828 72.8721 33.861 70.8987 37.1657C67.7277 42.476 62.9845 47.8092 56.4926 53.3486L37.1889 34.0445C43.7355 26.379 50.0316 21.1141 56.3091 18.0398C56.7872 17.8057 56.9849 17.2285 56.7509 16.7505C56.5168 16.2723 55.9394 16.0748 55.4615 16.3087C49.8441 19.0596 44.2382 23.4707 38.4896 29.6797C32.8737 26.3286 28.7366 26.9963 26.2217 28.1889C22.5087 29.95 19.8562 34.0577 19.2994 38.909C19.0447 41.1286 21.5966 42.5684 23.3699 41.2086C25.5679 39.5228 27.7692 39.1017 30.224 39.9144C29.4638 41.6045 29.6658 43.6096 30.7729 45.1159C29.6634 45.5821 28.6567 46.2524 27.8108 47.0984C23.2394 51.6695 23.4458 57.8336 22.9924 62.9291C22.7569 65.5768 24.9677 67.7768 27.6062 67.5429C28.2016 67.4899 28.8103 67.4468 29.4871 67.3999C30.018 67.363 30.4186 66.9027 30.3818 66.3717C30.3449 65.8408 29.8852 65.4397 29.3537 65.477C28.6667 65.5247 28.0483 65.5685 27.4356 65.623C25.991 65.752 24.7836 64.5483 24.9125 63.0998C25.3609 58.0554 25.1466 52.4881 29.1735 48.4613C30.0134 47.6213 31.0554 46.9976 32.2109 46.6385L34.4162 48.8439C32.4894 49.8185 31.1434 52.1155 30.7536 54.2062C30.0328 58.0723 32.5385 60.4886 36.3292 59.7818C38.4156 59.3927 40.7157 58.0491 41.6915 56.1192L43.8969 58.3245C43.538 59.48 42.9141 60.522 42.0741 61.3619C40.0636 63.3724 37.5234 64.5108 33.8377 65.0533C33.3111 65.1308 32.9471 65.6205 33.0246 66.1471C33.1023 66.6755 33.5937 67.0378 34.1184 66.9603C36.6771 66.5836 40.4268 65.7349 43.437 62.7249C44.2828 61.8791 44.9529 60.8727 45.419 59.7636C46.9053 60.8561 48.9054 61.0829 50.6211 60.3111C51.4339 62.7663 51.0126 64.9675 49.3267 67.1657C47.9693 68.9354 49.4024 71.4913 51.6262 71.2361C56.4775 70.6793 60.5851 68.0268 62.3462 64.3138C63.5387 61.7995 64.2061 57.6639 60.8579 52.0501C65.9465 47.3439 69.8098 42.7488 72.5537 38.1538ZM65.4744 14.9895C67.013 14.6996 68.6214 14.4944 70.3499 14.3664C73.6672 14.1213 76.4143 16.8723 76.169 20.1855C76.0431 21.8861 75.8361 23.5024 75.5426 25.0588C71.4872 22.7707 67.7644 19.0493 65.4744 14.9895ZM22.1967 39.6792C21.7709 40.0057 21.1537 39.6557 21.2142 39.1288C21.6957 34.9334 23.931 31.4088 27.0476 29.9306C29.9217 28.5675 33.4022 28.9885 37.165 31.1382C35.235 33.307 33.2876 35.6801 31.3173 38.2591C28.0895 37.0349 25.0245 37.5105 22.1967 39.6792ZM39.327 56.1409C38.464 57.0039 37.2112 57.6567 35.9758 57.887C34.7858 58.1088 33.7745 57.9074 33.2013 57.3342C32.628 56.7609 32.4265 55.7496 32.6484 54.5596C32.8787 53.3242 33.5315 52.0714 34.3945 51.2084C34.8178 50.7851 35.3313 50.486 35.8968 50.3244L40.2108 54.6385C40.0494 55.2041 39.7503 55.7176 39.327 56.1409ZM50.4448 58.1905C49.1596 59.1605 47.3318 59.0337 46.1932 57.8951L32.6404 44.3422C31.5017 43.2036 31.3748 41.3758 32.3449 40.0907C33.5546 38.4884 34.7541 36.9691 35.9449 35.5265L55.01 54.5917C53.5686 55.7807 52.0486 56.9795 50.4448 58.1905ZM60.6049 63.4879C59.1268 66.6046 55.6021 68.8397 51.4066 69.3212C50.8787 69.3821 50.5302 68.7639 50.8562 68.3388C53.0249 65.5112 53.5005 62.4463 52.2764 59.2187C54.8604 57.245 57.2323 55.2988 59.3987 53.373C61.5471 57.1347 61.9677 60.6144 60.6049 63.4879Z" fill="#2787F5"/>
<path d="M53.8441 36.691C56.2091 39.0561 60.0597 39.0562 62.4249 36.691C62.4249 36.691 62.4249 36.691 62.4249 36.691M53.8441 36.691L63.132 37.3981M53.8441 36.691C51.479 34.3259 51.4791 30.4752 53.8441 28.1102C56.2094 25.7451 60.06 25.7452 62.4249 28.1102C64.79 30.4754 64.79 34.3258 62.4249 36.691M53.8441 36.691H62.4249M62.4249 36.691L63.132 37.3981M63.132 37.3981C65.8876 34.6424 65.8876 30.1588 63.132 27.4031C60.3766 24.6475 55.8928 24.6475 53.137 27.4031C50.3814 30.1587 50.3814 34.6424 53.137 37.3981C55.8926 40.1537 60.3763 40.1538 63.132 37.3981Z" stroke="#F9A100" stroke-width="2"/>
<path d="M30.0657 16.8612L30.0657 16.8612C28.9822 16.3389 28.9831 14.7958 30.0656 14.2738C30.0656 14.2738 30.0656 14.2738 30.0657 14.2738L31.3373 13.6608C32.186 13.2517 32.8768 12.5608 33.2859 11.7122L33.8989 10.4405C33.899 10.4405 33.899 10.4405 33.899 10.4404C34.4214 9.35688 35.9644 9.35796 36.4863 10.4404C36.4863 10.4405 36.4863 10.4405 36.4863 10.4405L37.0994 11.7122L37.0995 11.7124C37.5087 12.5609 38.1994 13.2516 39.0479 13.6607L39.048 13.6608L40.3198 14.2738C40.3198 14.2738 40.3198 14.2738 40.3199 14.2739C41.4034 14.7964 41.4023 16.3393 40.3197 16.8612L40.3197 16.8612L39.0479 17.4743L39.0479 17.4743C38.1995 17.8834 37.5085 18.5741 37.0994 19.4228L36.4863 20.6946C36.4863 20.6946 36.4863 20.6946 36.4863 20.6946C35.964 21.7781 34.4209 21.7771 33.8989 20.6946L33.2859 19.4228L33.2859 19.4228C32.8768 18.5743 32.1862 17.8834 31.3374 17.4743C31.3373 17.4743 31.3373 17.4742 31.3373 17.4742L30.0657 16.8612Z" stroke="#F9A100" stroke-width="2"/>
<path d="M71.9339 58.7292L71.9339 58.7292C70.8504 58.2069 70.8513 56.6639 71.9337 56.1419C71.9338 56.1419 71.9338 56.1419 71.9338 56.1418L73.2055 55.5288C74.0541 55.1197 74.745 54.4289 75.1541 53.5803L75.7671 52.3085C75.7671 52.3085 75.7671 52.3085 75.7671 52.3085C76.2896 51.2249 77.8326 51.226 78.3545 52.3085C78.3545 52.3085 78.3545 52.3085 78.3545 52.3085L78.9676 53.5803L78.9676 53.5804C79.3768 54.4289 80.0676 55.1197 80.916 55.5288L80.9161 55.5288L82.1879 56.1418C82.188 56.1419 82.188 56.1419 82.188 56.1419C83.2716 56.6644 83.2704 58.2074 82.1879 58.7292L82.1879 58.7292L80.9161 59.3423L80.916 59.3423C80.0676 59.7514 79.3767 60.4421 78.9676 61.2909L78.3545 62.5626C78.3545 62.5626 78.3545 62.5626 78.3545 62.5626C77.8321 63.6461 76.2891 63.6452 75.7671 62.5627L75.1541 61.2909L75.1541 61.2909C74.745 60.4423 74.0544 59.7515 73.2055 59.3423C73.2055 59.3423 73.2055 59.3423 73.2054 59.3423L71.9339 58.7292Z" stroke="#F9A100" stroke-width="2"/>
</g>
<defs>
<clipPath id="clip0_706_455">
<rect width="102" height="79" fill="white"/>
</clipPath>
</defs>
</svg>
