<svg width="102" height="79" viewBox="0 0 102 79" fill="none" xmlns="http://www.w3.org/2000/svg">
<g clip-path="url(#clip0_706_444)">
<path opacity="0.1" d="M72.8787 71.3901C55.8197 66.4029 35.1307 60.4615 18.8117 55.7932C8.03883 52.7098 5.954 38.2667 15.4181 32.2354L47.7487 11.6332C53.8888 7.72172 62.0293 9.64484 65.7962 15.8962L87.5981 52.1155C93.7151 62.2858 84.2308 74.7093 72.8787 71.3901Z" fill="#0087F3"/>
<path d="M32.2744 56.7565C33.8237 56.2866 35.2405 57.4125 35.2867 57.4501L36.1078 58.1439L37.4947 56.4852L36.6695 55.7882C36.5763 55.7092 34.3508 53.865 31.6527 54.6819C30.3133 55.0877 29.3662 56.1456 29.181 57.4432C29.0078 58.6557 29.5305 59.8219 30.5448 60.4865C30.5924 60.5179 30.6424 60.5452 30.6943 60.5684C30.7535 60.595 32.1604 61.2244 33.7454 61.8123C34.7986 62.2027 35.3367 62.7982 35.2216 63.4459C35.1045 64.1058 34.3265 64.7885 33.2274 64.7885C32.1508 64.7885 31.1124 64.35 30.4503 63.6153L29.7265 62.8126L28.1294 64.2676L28.8531 65.0705C29.9171 66.2506 31.5524 66.9552 33.2274 66.9552C35.2573 66.9552 37.0268 65.6103 37.3436 63.8268C37.5845 62.4707 36.9617 60.6953 34.4914 59.7795C33.1981 59.2999 31.9965 58.7769 31.6631 58.63C31.3941 58.424 31.2645 58.1006 31.3143 57.7508C31.3461 57.5295 31.5029 56.99 32.2744 56.7565Z" fill="#F9A100"/>
<path d="M48.7533 66.9551V56.5419H46.5978V57.7805C45.8643 57.304 44.9917 57.0259 44.0552 57.0259C41.4646 57.0259 39.3569 59.1445 39.3569 61.7485C39.3569 64.3526 41.4646 66.4712 44.0552 66.4712C44.9917 66.4712 45.8643 66.1933 46.5978 65.7166V66.9551H48.7533ZM44.055 64.3047C42.653 64.3047 41.5123 63.158 41.5123 61.7487C41.5123 60.3393 42.653 59.1928 44.055 59.1928C45.4571 59.1928 46.5976 60.3394 46.5976 61.7487C46.5976 63.1579 45.4571 64.3047 44.055 64.3047Z" fill="#F9A100"/>
<path d="M60.3055 66.9551V56.5419H58.15V57.7805C57.4164 57.3038 56.5438 57.0259 55.6073 57.0259C53.0168 57.0259 50.9092 59.1445 50.9092 61.7485C50.9092 64.3526 53.0168 66.4712 55.6073 66.4712C56.5439 66.4712 57.4166 66.1933 58.15 65.7166V66.9551H60.3055ZM55.6073 64.3047C54.2052 64.3047 53.0647 63.158 53.0647 61.7487C53.0647 60.3393 54.2053 59.1928 55.6073 59.1928C57.0092 59.1928 58.15 60.3394 58.15 61.7487C58.15 63.1579 57.0093 64.3047 55.6073 64.3047Z" fill="#F9A100"/>
<path d="M67.5884 64.7883C66.5116 64.7883 65.4733 64.3497 64.8111 63.6151L64.0873 62.8124L62.4902 64.2674L63.2139 65.0702C64.278 66.2504 65.9134 66.955 67.5884 66.955C69.6183 66.955 71.3878 65.61 71.7046 63.8265C71.9455 62.4704 71.3227 60.695 68.8523 59.7792C67.5591 59.2997 66.3574 58.7766 66.0241 58.6297C65.7551 58.4237 65.6253 58.1003 65.6752 57.7506C65.7068 57.5294 65.8636 56.9898 66.6352 56.7562C68.1831 56.2865 69.5989 57.4106 69.6473 57.4499L70.4684 58.1436L71.8554 56.4851L71.0304 55.788C70.937 55.7091 68.7117 53.8648 66.0136 54.6816C64.6742 55.0874 63.7269 56.1453 63.5417 57.4429C63.3685 58.6554 63.8913 59.8217 64.9057 60.4864C64.9532 60.5176 65.0032 60.5449 65.0551 60.5682C65.1142 60.5948 66.5211 61.2241 68.1063 61.812C69.1594 62.2025 69.6976 62.7979 69.5825 63.4456C69.4654 64.1057 68.6874 64.7883 67.5884 64.7883Z" fill="#F9A100"/>
<path d="M62.8452 69.7054H65.0007V71.8722H62.8452V69.7054Z" fill="#2787F5"/>
<path d="M86.9507 45.0158C86.9507 41.7154 85.5277 38.5861 83.0463 36.4303C80.8694 34.5389 78.0796 33.5632 75.2312 33.668C75.0875 32.0271 74.4091 30.4597 73.2874 29.2346C71.8809 27.6984 69.8818 26.8174 67.8027 26.8174C66.6937 26.8174 65.6059 27.0666 64.6171 27.5361C64.1541 23.6314 62.4041 20.0204 59.5834 17.2163C56.3106 13.9624 51.9726 12.1704 47.3688 12.1704C43.2955 12.1704 39.2647 13.7803 36.0194 16.7032L37.4579 18.317C40.3074 15.7506 43.8272 14.3371 47.3689 14.3371C51.4015 14.3371 55.2011 15.9067 58.0678 18.7568C60.9323 21.6045 62.5363 25.4016 62.5843 29.4486L62.6116 31.7621L64.3619 30.2594C65.3196 29.4372 66.5416 28.9842 67.8029 28.9842C69.3028 28.9842 70.6873 29.5943 71.7017 30.7021C72.7192 31.8133 73.2111 33.2556 73.0865 34.7631L72.9743 36.1222L74.3167 35.9248C76.9539 35.5369 79.6217 36.3187 81.637 38.0698C83.6441 39.8136 84.7952 42.3453 84.7952 45.0158C84.7952 47.4225 83.8632 49.6553 82.1707 51.303C80.7118 52.7232 78.8083 53.6016 76.734 53.8301C76.2104 51.3907 74.0484 49.5566 71.4672 49.5566H28.8605C26.3624 49.5566 24.2565 51.2743 23.6488 53.5961C21.5166 52.8817 19.6018 51.5575 18.1728 49.7856C16.4701 47.6745 15.5324 45.0117 15.5324 42.288C15.5324 36.1196 19.5804 32.4733 23.3686 31.1175C25.6445 30.3031 28.0523 30.1698 30.3317 30.7318C32.769 31.3329 34.9259 32.7213 36.5694 34.7475L38.2399 33.3783C36.5876 31.3411 34.4859 29.8724 32.1661 29.0357C32.3152 25.7478 33.6687 22.4869 36.0239 19.777L34.4008 18.3515C31.8368 21.3014 30.3166 24.8457 30.0421 28.4581C27.6465 28.01 25.1064 28.1955 22.6457 29.076C19.9927 30.0254 17.7248 31.6871 16.0871 33.8814C14.3142 36.2574 13.377 39.1643 13.377 42.288C13.377 45.5069 14.4856 48.6543 16.4985 51.1503C18.2978 53.3813 20.7501 55.0118 23.4718 55.8095V66.4555C23.4718 69.4424 25.8891 71.8723 28.8605 71.8723H60.6898V69.7055H28.8605C27.0778 69.7055 25.6273 68.2475 25.6273 66.4555V54.9736C25.6273 53.1815 27.0778 51.7236 28.8605 51.7236H71.4672C73.2499 51.7236 74.7004 53.1815 74.7004 54.9736V66.4555C74.7004 68.2475 73.2499 69.7055 71.4672 69.7055H67.1562V71.8723H71.4672C74.4386 71.8723 76.8559 69.4424 76.8559 66.4555V55.9953C82.5958 55.4179 86.9507 50.7801 86.9507 45.0158Z" fill="#2787F5"/>
<path d="M57.7412 26.4059H59.8967V28.5726H57.7412V26.4059Z" fill="#2787F5"/>
<path d="M55.5859 22.0725H57.7414V24.2392H55.5859V22.0725Z" fill="#2787F5"/>
</g>
<defs>
<clipPath id="clip0_706_444">
<rect width="102" height="79" fill="white"/>
</clipPath>
</defs>
</svg>
