<svg width="226" height="215" viewBox="0 0 226 215" fill="none" xmlns="http://www.w3.org/2000/svg">
<g clip-path="url(#clip0_594_937)">
<path opacity="0.1" d="M165.324 134.46C130.879 139.698 89.1915 146.241 56.3244 151.434C34.6261 154.859 19.0687 131.012 30.9613 112.532L71.5894 49.4033C79.3064 37.4163 95.3688 34.108 107.2 42.0676L175.704 88.2034C194.932 101.162 188.247 130.974 165.324 134.46Z" fill="#0087F3"/>
<path d="M48.1154 106.79C77.2765 88.8995 112.508 67.0738 140.262 49.836C158.593 38.4475 181.763 54.0908 178.064 75.3585L165.405 147.987C163 161.785 149.729 170.908 135.989 168.214L56.389 152.61C34.0402 148.229 28.7159 118.697 48.1154 106.79Z" stroke="#F9A100" stroke-width="3" stroke-miterlimit="10" stroke-dasharray="11.89 11.89"/>
</g>
<g clip-path="url(#clip1_594_937)">
<path d="M82.9268 140.262L92.614 104.109C93.2212 101.843 95.5442 100.499 97.8053 101.105C98.6996 101.345 99.4516 101.855 99.9927 102.524C100.822 103.542 101.168 104.933 100.801 106.302L103.294 96.9932C103.598 95.8609 104.33 94.9577 105.269 94.4165C105.464 94.3039 105.67 94.2062 105.883 94.1241C106.689 93.8165 107.593 93.7503 108.487 93.9899C109.372 94.2272 110.114 94.7262 110.654 95.3829C111.39 96.2771 111.751 97.4581 111.582 98.6631L112.532 95.12C112.835 93.9882 113.57 93.0827 114.509 92.5407C114.708 92.425 114.919 92.3254 115.135 92.2452C115.934 91.94 116.835 91.8757 117.725 92.1143C118.619 92.3539 119.37 92.8634 119.914 93.5358C120.742 94.5534 121.088 95.9448 120.721 97.3143L119.634 101.371C120.001 100.003 120.996 98.9697 122.222 98.5027C123.026 98.194 123.929 98.127 124.826 98.3673C127.085 98.9733 128.427 101.3 127.821 103.565L121.524 127.06L121.608 127.067C122.799 127.387 123.849 127.966 124.717 128.73C126.859 130.618 127.876 133.624 127.086 136.572L124.15 147.527C123.586 149.633 122.21 151.426 120.326 152.518L115.983 155.03C113.954 156.204 112.472 158.137 111.864 160.405L111.21 162.849L83.2682 155.361L84.1046 152.239C84.6609 150.163 84.4431 147.955 83.4927 146.029C82.6105 144.239 82.4092 142.191 82.9268 140.262Z" fill="white"/>
<path d="M81.4531 154.874L113.168 163.372C114.213 163.652 114.834 164.726 114.553 165.771L111.527 177.066C111.247 178.111 110.173 178.731 109.128 178.452L77.4119 169.953C76.3672 169.673 75.7474 168.599 76.0268 167.554L79.0539 156.259C79.3332 155.214 80.4076 154.594 81.4531 154.874Z" fill="#FFE1A9"/>
<path d="M108.643 162.331L113.168 163.372C114.213 163.652 114.834 164.726 114.553 165.771L111.527 177.066C111.247 178.111 110.173 178.731 109.128 178.451L104.602 177.41C103.557 177.129 106.92 176.955 107.2 175.91L110.227 164.615C110.506 163.57 107.597 162.05 108.643 162.331Z" fill="#F9A100"/>
<path d="M71.4308 120.356L107.584 130.043C109.85 130.651 112.175 129.31 112.781 127.049C113.021 126.154 112.955 125.248 112.646 124.445C112.179 123.218 111.147 122.224 109.777 121.856L119.087 124.35C120.219 124.654 121.367 124.472 122.306 123.929C122.501 123.816 122.689 123.688 122.865 123.543C123.535 122.999 124.044 122.25 124.283 121.356C124.521 120.471 124.459 119.578 124.161 118.783C123.754 117.698 122.912 116.795 121.785 116.338L125.328 117.287C126.46 117.59 127.611 117.407 128.55 116.865C128.75 116.75 128.941 116.618 129.118 116.471C129.782 115.931 130.289 115.183 130.527 114.293C130.766 113.399 130.701 112.493 130.391 111.688C129.923 110.46 128.892 109.466 127.522 109.098L123.465 108.011C124.833 108.378 126.225 108.033 127.244 107.204C127.913 106.663 128.422 105.914 128.662 105.017C129.268 102.757 127.923 100.432 125.659 99.8251L102.164 93.5295L102.198 93.4536C102.517 92.263 102.54 91.0635 102.313 89.9294C101.75 87.1314 99.6537 84.7474 96.7059 83.9575L85.7509 81.0228C83.6448 80.4585 81.4037 80.7534 79.5168 81.8395L75.1692 84.3433C73.1374 85.5153 70.7236 85.8317 68.455 85.2238L66.012 84.5685L58.5251 112.51L61.6471 113.347C63.7232 113.904 65.5268 115.197 66.7197 116.983C67.8283 118.641 69.5019 119.839 71.4308 120.356Z" fill="white"/>
<path d="M58.0399 114.326L66.5381 82.6104C66.8183 81.5648 66.198 80.4905 65.1529 80.2111L53.8572 77.1845C52.8129 76.9046 51.7386 77.5249 51.458 78.5697L42.9605 110.285C42.6804 111.331 43.3002 112.404 44.3457 112.684L55.6406 115.712C56.6857 115.991 57.76 115.371 58.0399 114.326Z" fill="#C5E0FF"/>
<path d="M140.572 113.255L108.158 131.969C106.126 133.142 103.534 132.449 102.363 130.421C101.9 129.62 101.729 128.728 101.819 127.871C101.953 126.566 102.692 125.338 103.92 124.629L95.5733 129.448C94.5585 130.034 93.4021 130.155 92.3553 129.874C92.1377 129.816 91.9235 129.74 91.7148 129.646C90.9271 129.294 90.2419 128.702 89.7791 127.9C89.3209 127.107 89.1492 126.229 89.2313 125.382C89.343 124.23 89.9232 123.14 90.8939 122.407L87.7169 124.241C86.702 124.827 85.5427 124.946 84.4959 124.666C84.2734 124.608 84.0541 124.529 83.8445 124.433C83.063 124.083 82.3808 123.493 81.9198 122.694C81.457 121.893 81.2866 121 81.3773 120.141C81.5114 118.836 82.2499 117.608 83.478 116.899L87.1157 114.799C85.8899 115.506 84.4543 115.534 83.2572 114.997C82.4708 114.647 81.7851 114.055 81.3214 113.251C80.1518 111.226 80.8484 108.631 82.8782 107.459L103.944 95.2967L103.89 95.2327C103.274 94.1655 102.941 93.0119 102.868 91.8584C102.688 89.0099 104.095 86.1646 106.737 84.6389L116.559 78.9681C118.447 77.8781 120.688 77.5832 122.793 78.1431L127.64 79.4371C129.906 80.0423 132.32 79.7227 134.353 78.5485L136.543 77.2842L151.007 102.336L148.208 103.952C146.347 105.027 144.94 106.743 144.249 108.777C143.608 110.666 142.301 112.257 140.572 113.255Z" fill="#FEDFC5"/>
<path d="M112.781 127.049C113.021 126.154 112.955 125.248 112.646 124.445C112.179 123.218 111.147 122.224 109.778 121.857L119.087 124.351C120.219 124.655 121.367 124.472 122.306 123.93C122.501 123.817 122.689 123.688 122.865 123.543C123.536 123 124.044 122.251 124.284 121.356C124.521 120.471 124.459 119.578 124.161 118.783C123.755 117.699 122.912 116.796 121.785 116.339L125.328 117.288C126.46 117.591 127.611 117.407 128.55 116.865C128.75 116.751 128.941 116.618 129.118 116.471C129.782 115.931 130.289 115.183 130.527 114.294C130.767 113.4 130.701 112.493 130.391 111.688C129.923 110.461 128.892 109.466 127.523 109.099L123.466 108.012C124.833 108.378 126.226 108.034 127.244 107.204C127.913 106.663 128.422 105.914 128.662 105.017C129.268 102.757 127.923 100.432 125.659 99.8251L102.164 93.5295L102.198 93.4536C102.517 92.263 102.54 91.0635 102.313 89.9295C102.043 88.5872 101.416 87.3422 100.516 86.3207C99.6461 88.0649 99.2302 90.0398 99.3593 92.0817C99.3953 92.6476 99.4726 93.2045 99.5899 93.75L81.12 104.414C77.4141 106.553 76.1386 111.306 78.2764 115.008C78.5332 115.453 78.8296 115.868 79.1612 116.246C78.4604 117.288 78.012 118.496 77.8813 119.77C77.7971 120.561 77.8374 121.349 77.9912 122.113L107.584 130.042C109.85 130.651 112.175 129.311 112.781 127.049Z" fill="#C3E4FF"/>
<path d="M109.914 135.011L122.877 127.527C122.475 127.34 122.05 127.185 121.606 127.066L121.524 127.058L127.819 103.563C128.426 101.299 127.084 98.9709 124.824 98.3662C123.928 98.1259 123.025 98.1916 122.221 98.5003C120.994 98.9677 119.999 100.002 119.633 101.369L120.72 97.3119C121.087 95.9425 120.741 94.5522 119.912 93.5339C119.369 92.8618 118.617 92.352 117.723 92.1124C116.834 91.8741 115.932 91.9389 115.132 92.2433C114.917 92.3243 114.706 92.4226 114.507 92.5396C113.569 93.0816 112.834 93.9858 112.531 95.1184L111.582 98.6615C111.748 97.4562 111.388 96.2752 110.652 95.3817C110.112 94.7251 109.37 94.2253 108.485 93.988C107.591 93.7484 106.688 93.8141 105.882 94.123C105.668 94.2038 105.463 94.3015 105.268 94.4141C104.329 94.9561 103.596 95.859 103.293 96.9908L100.798 106.301C101.165 104.931 100.82 103.54 99.9913 102.522C99.4499 101.854 98.6986 101.343 97.8044 101.104C95.5425 100.498 93.2195 101.842 92.6123 104.108L86.1226 128.327C86.2821 128.785 86.486 129.23 86.7328 129.657C87.554 131.08 88.7803 132.186 90.2715 132.851C90.6513 133.022 91.0461 133.162 91.4438 133.269C93.4428 133.805 95.5328 133.528 97.3295 132.491L98.9842 131.536C99.0846 131.754 99.1955 131.968 99.3168 132.178C101.455 135.879 106.208 137.151 109.914 135.011Z" fill="#C3E4FF"/>
<path d="M140.572 113.255L108.158 131.969C106.126 133.142 103.534 132.449 102.363 130.421C102.332 130.366 102.298 130.308 102.267 130.246C101.878 129.494 101.736 128.67 101.82 127.878C101.818 127.875 101.821 127.874 101.819 127.871C101.953 126.566 102.692 125.338 103.92 124.629L95.5733 129.448C94.5585 130.034 93.4021 130.155 92.3553 129.874C92.1377 129.816 91.9235 129.74 91.7148 129.646C90.9271 129.294 90.2419 128.702 89.7791 127.9C89.3209 127.107 89.1492 126.229 89.2313 125.382C89.343 124.23 89.9232 123.14 90.8939 122.407L87.7169 124.241C86.702 124.827 85.5427 124.946 84.4959 124.666C84.2734 124.608 84.0541 124.529 83.8445 124.433C83.063 124.083 82.3808 123.493 81.9198 122.694C81.457 121.893 81.2866 121 81.3773 120.141C81.5114 118.836 82.2499 117.608 83.478 116.899L87.1157 114.799C85.8899 115.506 84.4543 115.534 83.2572 114.997C82.4708 114.647 81.7851 114.055 81.3214 113.251C80.1518 111.226 80.8484 108.631 82.8782 107.459L103.944 95.2967L103.89 95.2327C103.274 94.1655 102.941 93.0119 102.868 91.8584C102.688 89.0099 104.095 86.1646 106.737 84.6389L116.559 78.9681C118.447 77.8781 120.688 77.5832 122.793 78.1431L127.64 79.4371C129.042 79.8107 130.499 79.8328 131.89 79.5138C132.752 79.3198 133.588 78.9903 134.353 78.5485L136.543 77.2842L151.007 102.336L148.208 103.952C147.581 104.314 146.958 104.763 146.454 105.288C145.459 106.251 144.702 107.446 144.249 108.777C143.612 110.65 142.289 112.263 140.572 113.255Z" fill="white"/>
<path d="M140.572 113.255L108.158 131.969C106.126 133.142 103.534 132.449 102.363 130.421C102.332 130.366 102.298 130.308 102.267 130.246C101.878 129.494 101.736 128.67 101.82 127.878L133.091 109.907C133.28 109.798 133.553 109.583 133.887 109.284C139.9 103.945 141.147 95.5472 137.126 88.5827L131.89 79.5138C132.752 79.3198 133.588 78.9903 134.353 78.5485L136.543 77.2842L151.007 102.336L148.208 103.952C147.581 104.314 146.958 104.763 146.454 105.288C145.459 106.251 144.702 107.446 144.249 108.777C143.612 110.65 142.289 112.263 140.572 113.255Z" fill="#C3E4FF"/>
<path d="M151.946 103.965L135.529 75.5284C134.988 74.592 135.309 73.3939 136.246 72.8528L146.373 67.0063C147.31 66.4652 148.508 66.7862 149.049 67.7226L165.466 96.1589C166.007 97.0953 165.686 98.2934 164.749 98.8345L154.622 104.681C153.685 105.222 152.487 104.901 151.946 103.965Z" fill="#83D9FF"/>
<path d="M113.264 177.507L116.297 166.227C116.555 165.268 116.424 164.266 115.928 163.406C115.431 162.546 114.629 161.931 113.669 161.675L113.408 161.605L113.606 160.865C113.853 159.95 114.27 159.111 114.831 158.381C114.913 158.298 114.988 158.207 115.051 158.109C115.571 157.498 116.198 156.974 116.914 156.561L118.939 155.392C120.876 154.274 121.256 154.041 121.639 153.82C123.748 152.478 125.258 150.427 125.911 147.999L128.853 137.057C129.513 134.602 129.177 132.038 127.907 129.838C126.923 128.135 125.471 126.81 123.725 125.993L124.04 124.831L141.451 114.778C143.55 113.566 145.135 111.635 145.914 109.342C146.467 107.711 147.594 106.338 149.088 105.476L150.364 104.739L150.424 104.844C151.449 106.618 153.726 107.228 155.501 106.203L165.628 100.357C167.403 99.3319 168.013 97.0545 166.989 95.2801L150.571 66.8438C149.547 65.0693 147.269 64.4591 145.494 65.484L135.367 71.3306C133.592 72.3555 132.982 74.6329 134.006 76.4074L134.142 76.6421L133.474 77.0275C131.833 77.9751 129.922 78.2276 128.093 77.739L123.246 76.445C120.674 75.7585 117.988 76.1137 115.681 77.4458L105.859 83.1161C104.525 83.8866 103.45 84.9343 102.659 86.1425C101.377 84.1912 99.4496 82.7954 97.1743 82.1871L86.2269 79.2638C83.6549 78.5773 80.9679 78.933 78.6615 80.2646L74.3134 82.775C72.6721 83.7226 70.7611 83.9759 68.9324 83.4872L68.2 83.2917C68.197 83.2902 68.1945 83.2895 68.192 83.2889L68.2625 83.0283C68.5203 82.0686 68.3892 81.067 67.8926 80.2067C67.3964 79.3473 66.5941 78.7322 65.6345 78.4764L54.3494 75.4626C52.371 74.9345 50.3286 76.1137 49.7967 78.0911L48.7591 81.9536C48.5065 82.8913 49.0623 83.8559 49.9995 84.1077C50.9375 84.359 51.9018 83.8044 52.1539 82.866L53.1928 79.0037C53.2219 78.8949 53.3337 78.8304 53.4425 78.8596L64.7276 81.8733C64.8327 81.9015 64.8962 82.0096 64.8672 82.1152L64.3398 84.0763L64.3402 84.0771L57.1406 110.854L56.3334 113.854C56.3042 113.963 56.1924 114.027 56.0836 113.998L44.799 110.985C44.6927 110.957 44.63 110.848 44.6589 110.742L50.3251 89.6685C50.5777 88.7309 50.0218 87.7663 49.0847 87.5145C48.1462 87.2624 47.1824 87.8178 46.9298 88.7554L41.2641 109.83C41.0058 110.789 41.1374 111.791 41.634 112.652C42.1303 113.511 42.9321 114.125 43.8921 114.382L55.1768 117.395C57.1544 117.924 59.1968 116.744 59.7287 114.767L59.7615 114.644L61.185 115.025C62.8483 115.468 64.2901 116.501 65.2443 117.932C66.5879 119.946 68.6173 121.399 70.9579 122.024L81.3274 124.79C82.9177 126.396 85.3108 126.98 87.4734 126.265C87.5419 127.125 87.7964 127.984 88.256 128.78C89.909 131.643 93.5858 132.626 96.4528 130.971L100.067 128.884C100.147 129.711 100.398 130.535 100.841 131.301C102.494 134.164 106.17 135.147 109.037 133.492L119.723 127.322L117.721 134.721C117.594 135.191 117.67 135.668 117.896 136.059C118.12 136.448 118.492 136.751 118.96 136.878C119.896 137.131 120.861 136.577 121.115 135.639L122.784 129.47C123.637 129.986 124.35 130.709 124.862 131.595C125.662 132.981 125.874 134.597 125.457 136.144L122.516 147.086C122.068 148.751 120.999 150.143 119.504 151.006L115.156 153.516C112.702 154.933 110.946 157.219 110.211 159.952L110.011 160.698L106.524 159.767L85.435 154.135L85.7513 152.96C85.7538 152.948 85.7577 152.936 85.7602 152.924L85.8163 152.718C86.4849 150.23 86.225 147.588 85.0848 145.28C84.3914 143.876 84.2334 142.269 84.6414 140.749L86.7286 132.874C86.9774 131.936 86.4184 130.973 85.4798 130.724C84.5416 130.476 83.5788 131.035 83.3308 131.973L81.2457 139.843C80.6162 142.182 80.8601 144.666 81.933 146.837C82.6949 148.379 82.8681 150.144 82.4215 151.805L82.3903 151.922C82.368 151.987 82.3503 152.054 82.3363 152.121L82.0389 153.228L81.9155 153.196C79.9372 152.668 77.8955 153.846 77.3637 155.824L74.3307 167.103C74.0729 168.063 74.2039 169.064 74.7006 169.925C75.1968 170.784 75.9991 171.399 76.9592 171.656L108.713 180.135C110.691 180.663 112.733 179.484 113.264 177.507ZM71.8648 118.627C70.3504 118.223 69.038 117.283 68.1691 115.981C66.7398 113.839 64.5818 112.293 62.0932 111.628L60.6746 111.249L61.018 109.973C61.0223 109.956 61.0275 109.94 61.0311 109.924L67.2794 86.6849L68.0255 86.8842C70.7601 87.6142 73.6172 87.2364 76.0712 85.8196L80.4193 83.3092C81.9138 82.4464 83.6539 82.2156 85.3201 82.6607L96.2667 85.5845C97.8149 85.9973 99.1082 86.9886 99.9083 88.3745C100.421 89.2633 100.691 90.2471 100.71 91.2472L94.5351 89.5982C93.5976 89.3476 92.6339 89.9051 92.3834 90.8426C92.2585 91.3111 92.335 91.786 92.5597 92.1753C92.785 92.5654 93.1592 92.8694 93.6282 92.9951L101.004 94.9642L81.9993 105.937C79.1323 107.592 78.1454 111.268 79.7984 114.131C80.2644 114.938 80.8912 115.595 81.6147 116.087C80.2844 117.267 79.5693 118.965 79.599 120.69L71.8648 118.627ZM107.279 130.448C106.091 131.134 104.568 130.728 103.884 129.544C103.2 128.36 103.611 126.838 104.799 126.152L121.779 116.349C122.62 115.863 122.909 114.789 122.423 113.947C121.937 113.106 120.862 112.819 120.022 113.304L94.6942 127.927C93.5064 128.612 91.9845 128.207 91.3006 127.022C90.6868 125.959 90.9559 124.627 91.8763 123.868L117.577 109.03C118.418 108.544 118.706 107.47 118.221 106.629C118.065 106.358 117.846 106.145 117.595 105.996C117.061 105.662 116.366 105.627 115.784 105.963L90.457 120.586C90.2635 120.698 90.0804 120.818 89.9044 120.947L86.8368 122.718C85.6491 123.404 84.1264 122.999 83.4425 121.814C82.7591 120.63 83.1694 119.109 84.3571 118.423L113.358 101.68C114.198 101.194 114.487 100.119 114.001 99.2784C113.516 98.4372 112.44 98.149 111.6 98.6342L86.2373 113.277C85.0496 113.963 83.5269 113.558 82.8435 112.374C82.1596 111.189 82.5699 109.668 83.7576 108.982L112.075 92.6332C112.916 92.1475 113.204 91.0719 112.719 90.2315C112.233 89.3902 111.158 89.1028 110.317 89.5885L105.079 92.6125C104.965 92.5087 104.835 92.4184 104.693 92.3474C104.296 89.9516 105.389 87.4471 107.617 86.1608L117.438 80.4904C118.933 79.6276 120.673 79.3976 122.339 79.8419L127.186 81.1359C129.921 81.8667 132.778 81.4889 135.232 80.0721L135.9 79.6867L137.667 82.7472C138.152 83.5884 139.227 83.8758 140.068 83.3906C140.909 82.9049 141.197 81.8306 140.711 80.9894L137.051 74.6496C136.996 74.5536 137.029 74.4306 137.125 74.3752L147.252 68.5287C147.348 68.4733 147.471 68.5057 147.526 68.6016L163.944 97.0371C163.999 97.1338 163.966 97.2568 163.87 97.3122L153.743 103.159C153.647 103.215 153.524 103.182 153.468 103.085L144.838 88.1363C144.352 87.2958 143.278 87.0072 142.436 87.4929C141.596 87.9781 141.308 89.0537 141.793 89.8941L148.606 101.694L147.33 102.431C145.097 103.72 143.412 105.772 142.584 108.212C142.08 109.697 141.053 110.948 139.694 111.733L107.279 130.448ZM109.619 176.738L77.866 168.259C77.8127 168.245 77.7727 168.214 77.7452 168.167C77.7182 168.12 77.7115 168.07 77.7259 168.016L80.7589 156.737C80.7881 156.628 80.8999 156.564 81.0087 156.593L82.8257 157.078L82.827 157.078L101.26 162L112.762 165.072C112.868 165.099 112.931 165.208 112.902 165.313L109.869 176.593C109.84 176.702 109.728 176.767 109.619 176.738Z" fill="#2787F5"/>
<path d="M147.561 75.0079C146.768 73.6344 145.007 73.1667 143.636 73.9587C142.263 74.7513 141.789 76.5096 142.582 77.8829C143.375 79.2566 145.134 79.7256 146.507 78.9328C147.88 78.1406 148.354 76.3819 147.561 75.0079Z" fill="white" stroke="#2787F5" stroke-width="2"/>
<path d="M108.824 168.171C108.031 166.797 106.27 166.328 104.898 167.121C103.526 167.913 103.051 169.672 103.844 171.046C104.637 172.419 106.398 172.887 107.77 172.095C109.142 171.303 109.617 169.544 108.824 168.171Z" fill="white" stroke="#2787F5" stroke-width="2"/>
<path d="M53.2691 109.813C54.6409 109.021 55.1162 107.262 54.3232 105.889C53.5299 104.515 51.7694 104.047 50.3973 104.839C49.0252 105.631 48.5503 107.39 49.3436 108.764C50.1366 110.137 51.8973 110.605 53.2691 109.813Z" fill="white" stroke="#2787F5" stroke-width="2"/>
</g>
<defs>
<clipPath id="clip0_594_937">
<rect width="181.194" height="164.72" fill="white" transform="translate(0.569183 58.4113) rotate(-18.7265)"/>
</clipPath>
<clipPath id="clip1_594_937">
<rect width="120" height="120" fill="white" transform="translate(130.923 30) rotate(60)"/>
</clipPath>
</defs>
</svg>
