<svg width="236" height="234" viewBox="0 0 236 234" fill="none" xmlns="http://www.w3.org/2000/svg">
<g clip-path="url(#clip0_594_914)">
<path opacity="0.1" d="M151.044 50.8341C118.521 63.3312 79.0602 78.2796 47.9311 90.0352C27.3819 97.7989 25.667 126.22 45.1476 136.392L111.696 171.136C124.334 177.732 139.929 172.656 146.269 159.884L182.959 85.8892C193.252 65.1122 172.687 42.5169 151.044 50.8341Z" fill="#0087F3"/>
<path d="M179.896 168.942C145.06 169.015 102.861 169.287 69.5937 169.54C47.6202 169.709 35.7856 143.819 50.2862 127.3L99.8274 70.9007C109.239 60.1856 125.614 59.2989 136.125 68.9318L197.02 124.733C214.118 140.399 203.073 168.889 179.896 168.942Z" stroke="#F9A100" stroke-width="3" stroke-miterlimit="10" stroke-dasharray="11.89 11.89"/>
<g clip-path="url(#clip1_594_914)">
<path d="M163.266 160.694C168.537 160.644 172.771 156.309 172.721 151.012C172.674 146.01 168.826 141.941 163.96 141.543C163.96 141.529 163.96 141.515 163.96 141.501C163.921 137.363 160.552 134.04 156.434 134.079C153.684 134.104 151.297 135.624 150.026 137.863C148.237 136.864 146.176 136.3 143.984 136.321C138.879 136.369 134.537 139.558 132.753 144.044C131.307 143.116 129.586 142.584 127.743 142.601C124.683 142.63 121.989 144.163 120.346 146.494C118.659 144.194 115.936 142.712 112.877 142.741C111.033 142.758 109.323 143.323 107.894 144.278C106.026 139.826 101.625 136.719 96.5197 136.767C94.3276 136.787 92.2777 137.39 90.5085 138.423C89.1951 136.208 86.7803 134.733 84.0301 134.759C79.9123 134.798 76.6057 138.184 76.6446 142.322C76.6447 142.336 76.6458 142.35 76.6459 142.364C71.7882 142.853 68.0173 146.994 68.0643 151.996C68.1143 157.293 72.4285 161.548 77.7002 161.498L163.266 160.694Z" fill="#FFE1A9"/>
<path d="M172.722 151.121C172.766 155.833 169.468 159.79 165.063 160.677L165.932 159.746C166.746 158.749 167.361 157.584 167.725 156.342C168.764 152.792 168.451 147.646 164.864 145.64C164.303 145.326 163.707 145.086 163.099 144.887C162.217 144.599 161.311 144.4 160.409 144.19C159.811 144.051 159.375 143.546 159.288 142.931C158.769 139.245 155.621 136.428 151.842 136.463C151.568 136.466 151.299 136.483 151.036 136.515C152.378 135.034 154.302 134.099 156.449 134.078C160.561 134.04 163.928 137.385 163.967 141.547L163.968 141.589C168.828 141.992 172.675 146.087 172.722 151.121Z" fill="#E4BD76"/>
<path d="M174.013 148.044C173.786 147.064 172.808 146.453 171.828 146.68C170.848 146.907 170.237 147.885 170.464 148.866C170.591 149.414 170.658 149.98 170.663 150.549C170.703 154.818 167.263 158.324 162.994 158.364C161.988 158.373 161.18 159.197 161.189 160.203C161.199 161.209 162.022 162.017 163.028 162.007C169.306 161.948 174.366 156.793 174.307 150.515C174.299 149.681 174.2 148.849 174.013 148.044Z" fill="#2787F5"/>
<path d="M127.698 47.56C125.653 45.1178 123.868 43.5424 122.27 42.183C120.471 40.6533 118.416 40.4695 116.608 41.9884C115.001 43.3383 114.035 44.3196 111.976 46.7492C110.673 48.2867 109.698 49.5461 107.773 52.1718C107.773 52.1718 106.612 53.1173 106.353 53.6164C103.761 58.6099 102.395 64.2077 102.378 69.9165L102.229 119.888L119.229 119.938L136.229 119.989L136.378 70.018C136.395 64.3092 135.062 58.7034 132.501 53.6947C132.349 53.3974 131.52 53.1686 131.359 52.8757C130.29 50.9273 129.14 49.2827 127.698 47.56Z" fill="white"/>
<path d="M81.6194 155.688C81.3446 155.691 81.0651 155.629 80.803 155.496C79.4809 154.824 78.391 153.787 77.6513 152.496C77.1405 151.605 76.819 150.639 76.6965 149.625C76.5794 148.656 77.2705 147.775 78.24 147.658C79.2096 147.54 80.0904 148.232 80.2077 149.201C80.2729 149.742 80.4452 150.259 80.7196 150.737C81.1161 151.429 81.699 151.985 82.4054 152.344C83.2761 152.786 83.623 153.85 83.1806 154.721C82.8713 155.33 82.2581 155.682 81.6194 155.688Z" fill="#F9A100"/>
<path d="M145.608 152.885C144.654 152.894 143.861 152.142 143.825 151.182C143.805 150.638 143.677 150.109 143.443 149.609C143.106 148.887 142.571 148.284 141.897 147.868C141.066 147.354 140.809 146.265 141.322 145.434C141.836 144.604 142.925 144.346 143.756 144.86C145.017 145.639 146.017 146.764 146.647 148.112C147.082 149.043 147.322 150.032 147.359 151.052C147.395 152.028 146.633 152.848 145.657 152.884C145.641 152.885 145.624 152.885 145.608 152.885Z" fill="#F9A100"/>
<path d="M119.454 86.9632C125.911 86.9025 131.114 81.5998 131.054 75.1428C130.993 68.6857 125.69 63.4818 119.233 63.5425C112.777 63.6032 107.573 68.9059 107.633 75.363C107.694 81.8199 112.996 87.0239 119.454 86.9632ZM119.268 67.1855C123.716 67.1437 127.369 70.7285 127.41 75.1769C127.452 79.6249 123.867 83.278 119.419 83.3198C114.971 83.3617 111.318 79.7768 111.277 75.3285C111.235 70.8805 114.82 67.2274 119.268 67.1855Z" fill="#F9A100"/>
<path d="M88.8736 109.86L100.586 109.75L100.654 116.92C98.8689 117.435 97.5659 119.087 97.5842 121.033L97.6201 124.85C97.6421 127.189 99.5627 129.074 101.902 129.052L105.071 129.022L107.26 133.941C107.976 135.552 109.578 136.582 111.341 136.565L128.497 136.404C130.26 136.387 131.843 135.327 132.529 133.703L134.624 128.744L137.794 128.715C140.133 128.693 142.018 126.772 141.996 124.433L141.96 120.615C141.941 118.669 140.607 117.042 138.813 116.561L138.746 109.391L150.46 109.281C152.678 109.26 154.466 107.438 154.445 105.22L154.368 96.986C154.359 96.0224 154.004 95.093 153.368 94.369L138.445 77.3738L138.374 69.8569C138.291 60.9818 135.106 52.4631 129.407 45.87C127.568 43.7422 125.53 41.7523 123.349 39.9566C120.816 37.8703 117.168 37.9046 114.675 40.0381C112.529 41.8745 110.528 43.9024 108.729 46.0644C103.155 52.7635 100.131 61.3405 100.215 70.2156L100.286 77.7335L95.1621 83.7945C94.5127 84.5628 94.6091 85.7123 95.3774 86.3617C96.1457 87.011 97.2952 86.9147 97.9448 86.1464L100.338 83.3152L100.552 106.106L88.8396 106.216C88.6299 106.218 88.4578 106.049 88.4558 105.84L88.3784 97.6061C88.3776 97.5151 88.4094 97.4266 88.4681 97.3573L92.521 92.5626C93.1707 91.7943 93.0741 90.6448 92.3058 89.9952C91.5375 89.3458 90.388 89.4421 89.7383 90.2104L85.6854 95.005C85.0636 95.7409 84.7261 96.6768 84.7351 97.6404L84.8125 105.874C84.8334 108.093 86.655 109.881 88.8736 109.86ZM150.63 96.7734C150.69 96.8418 150.724 96.9297 150.724 97.0207L150.802 105.254C150.804 105.464 150.635 105.636 150.425 105.638L138.712 105.748L138.497 82.9562L150.63 96.7734ZM129.173 132.285C129.052 132.571 128.773 132.758 128.463 132.761L111.307 132.922C110.996 132.925 110.714 132.744 110.588 132.46L109.042 128.985L130.653 128.782L129.173 132.285ZM111.53 48.3952C113.198 46.3906 115.053 44.5104 117.044 42.8067C118.191 41.8259 119.868 41.8099 121.033 42.7692C123.055 44.4349 124.946 46.2799 126.651 48.253C127.15 48.8306 129.199 51.6213 129.235 51.6759L109.011 51.8661C109.061 51.7866 110.916 49.1329 111.53 48.3952ZM103.935 78.363L103.858 70.1818C103.81 65.0605 104.907 60.0524 107.016 55.5285L131.298 55.3002C133.491 59.7837 134.683 64.77 134.731 69.8916L135.168 116.437L104.295 116.727L103.936 78.3754C103.936 78.371 103.935 78.3671 103.935 78.363ZM101.228 120.998C101.224 120.668 101.49 120.397 101.821 120.394L102.491 120.388L137.712 120.057C138.042 120.054 138.313 120.32 138.316 120.65L138.352 124.467C138.355 124.797 138.089 125.068 137.759 125.071L101.868 125.409C101.538 125.412 101.266 125.146 101.263 124.816L101.228 120.998Z" fill="#2787F5"/>
<path d="M80.2922 129.1C81.2982 129.09 82.1062 128.267 82.0968 127.261L81.9954 116.478C81.9859 115.472 81.1626 114.664 80.1566 114.673C79.1506 114.683 78.3426 115.506 78.3521 116.512L78.4535 127.295C78.4629 128.301 79.286 129.109 80.2922 129.1Z" fill="#F9A100"/>
<path d="M86.1751 116.438L86.2109 120.244C86.2204 121.25 87.0437 122.058 88.0497 122.049C89.0557 122.04 89.8637 121.216 89.8542 120.21L89.8184 116.404C89.809 115.398 88.9857 114.59 87.9797 114.6C86.9737 114.609 86.1657 115.432 86.1751 116.438Z" fill="#F9A100"/>
<path d="M159.4 128.356C160.406 128.347 161.214 127.523 161.205 126.517L161.103 115.734C161.094 114.728 160.271 113.92 159.265 113.929C158.259 113.939 157.451 114.762 157.46 115.768L157.561 126.552C157.571 127.558 158.394 128.366 159.4 128.356Z" fill="#F9A100"/>
<path d="M149.637 115.842L149.673 119.648C149.682 120.654 150.506 121.462 151.512 121.452C152.518 121.443 153.326 120.62 153.316 119.614L153.28 115.808C153.271 114.802 152.448 113.994 151.442 114.003C150.435 114.012 149.628 114.836 149.637 115.842Z" fill="#F9A100"/>
<path d="M161.885 141.092C161.886 142.041 162.614 142.83 163.559 142.907C164.527 142.985 165.458 143.241 166.326 143.667C167.23 144.111 168.321 143.738 168.764 142.835C169.207 141.931 168.835 140.84 167.931 140.397C167.117 139.997 166.267 139.7 165.389 139.506C164.617 135.113 160.753 131.784 156.15 131.827C153.435 131.853 150.878 133.081 149.148 135.117C147.419 134.407 145.555 134.046 143.676 134.064C138.621 134.111 134.074 136.823 131.614 141.118C130.302 140.593 128.878 140.312 127.403 140.326C124.627 140.352 121.98 141.44 119.983 143.307C117.952 141.478 115.284 140.44 112.508 140.466C111.033 140.48 109.615 140.787 108.313 141.337C105.773 137.089 101.176 134.463 96.1202 134.511C94.2414 134.528 92.3845 134.925 90.6695 135.667C88.9017 133.663 86.3216 132.484 83.6066 132.509C79.004 132.553 75.2039 135.952 74.5136 140.357C69.4052 141.571 65.7541 146.132 65.8049 151.534C65.8639 157.812 71.0194 162.872 77.2976 162.813C78.3036 162.804 79.1116 161.98 79.1021 160.974C79.0927 159.968 78.2694 159.16 77.2634 159.17C72.9943 159.21 69.4883 155.769 69.4482 151.5C69.4103 147.47 72.402 144.128 76.4071 143.726C77.3505 143.631 78.0635 142.829 78.0466 141.881L78.0453 141.84C78.024 138.732 80.5313 136.182 83.6408 136.153C85.6415 136.134 87.5226 137.193 88.5495 138.916C89.0606 139.773 90.1663 140.06 91.0294 139.559C92.5821 138.657 94.3543 138.171 96.1542 138.154C99.9333 138.118 103.366 140.101 105.237 143.298C104.216 144.222 103.355 145.343 102.723 146.634C102.28 147.537 102.653 148.628 103.557 149.071C103.82 149.2 104.1 149.26 104.374 149.258C105.042 149.251 105.681 148.877 105.995 148.237C106.576 147.052 107.441 146.077 108.485 145.371C108.504 145.36 108.524 145.35 108.542 145.338C109.097 144.969 109.696 144.683 110.32 144.475C111.025 144.245 111.772 144.117 112.543 144.11C114.887 144.088 117.118 145.197 118.521 147.079C118.637 147.243 118.78 147.392 118.954 147.514C119.586 147.963 120.481 147.944 121.092 147.494C121.26 147.369 121.4 147.22 121.512 147.056C122.879 145.145 125.091 143.992 127.437 143.97C128.313 143.961 129.163 144.105 129.957 144.384C129.957 144.386 129.957 144.388 129.956 144.391C130.48 144.576 130.985 144.819 131.46 145.122C131.479 145.134 131.498 145.143 131.517 145.154C132.574 145.84 133.458 146.799 134.062 147.973C134.388 148.607 135.034 148.969 135.701 148.963C135.976 148.96 136.254 148.895 136.515 148.761C137.41 148.301 137.762 147.203 137.303 146.308C136.646 145.03 135.765 143.925 134.726 143.021C136.537 139.788 139.931 137.742 143.711 137.707C145.511 137.69 147.292 138.142 148.861 139.015C149.734 139.5 150.834 139.192 151.329 138.326C152.323 136.583 154.184 135.489 156.184 135.47C159.292 135.441 161.845 137.94 161.886 141.045C161.886 141.062 161.885 141.081 161.885 141.092Z" fill="#2787F5"/>
</g>
</g>
<defs>
<clipPath id="clip0_594_914">
<rect width="174.047" height="164.72" fill="white" transform="translate(0.422028 94.1445) rotate(-32.4561)"/>
</clipPath>
<clipPath id="clip1_594_914">
<rect width="124" height="124" fill="white" transform="translate(57 38.9983) rotate(-0.538609)"/>
</clipPath>
</defs>
</svg>
