<svg width="226" height="215" viewBox="0 0 226 215" fill="none" xmlns="http://www.w3.org/2000/svg">
<g clip-path="url(#clip0_4_740)">
<path opacity="0.1" d="M165.324 134.46C130.879 139.698 89.1914 146.241 56.3243 151.434C34.626 154.859 19.0686 131.012 30.9612 112.532L71.5893 49.4033C79.3063 37.4163 95.3687 34.108 107.2 42.0676L175.704 88.2034C194.932 101.162 188.247 130.974 165.324 134.46Z" fill="#0087F3"/>
<path d="M48.1152 106.791C77.2763 88.8995 112.508 67.0739 140.262 49.836C158.593 38.4475 181.763 54.0908 178.064 75.3585L165.405 147.987C163 161.785 149.729 170.908 135.989 168.214L56.3889 152.61C34.04 148.229 28.7157 118.697 48.1152 106.791Z" stroke="#F9A100" stroke-width="3" stroke-miterlimit="10" stroke-dasharray="11.89 11.89"/>
</g>
<g clip-path="url(#clip1_4_740)">
<path d="M144.794 75.544C143.153 80.7676 137.895 83.9639 132.503 83.0141C127.111 82.0655 123.259 77.2657 123.501 71.7962C123.741 66.3277 128.001 61.8846 133.456 61.414C131.244 56.5908 130.1 51.3471 130.098 46.0415C130.103 44.5839 130.198 43.1274 130.381 41.6804H125.736V49.8788C123.48 50.7647 121.371 51.9859 119.478 53.4989L112.391 49.3997L103.669 64.489L110.777 68.6105C110.588 69.8009 110.485 71.003 110.473 72.2082C110.485 73.4135 110.588 74.6156 110.777 75.8059L109.164 76.744L112.653 80.9305H106.111L105.871 83.7648L112.412 95.0168L119.499 90.9176C121.386 92.4295 123.488 93.6497 125.736 94.5377V102.736H143.181V94.5377C145.436 93.6518 147.546 92.4306 149.438 90.9176L156.525 95.0168L163.525 82.9364C156.717 82.2582 150.23 79.6986 144.794 75.544Z" fill="#83D9FF"/>
<path d="M142 43L130 41.5L126.5 43L123 53L133 72L160.5 87.5L163.5 80L159 76V69L163.5 65L162 60L155 50.5L149 53L143 49L142 43Z" fill="white"/>
<path d="M101.75 56.9443C75.2555 56.9443 53.7778 78.422 53.7778 104.917C53.7778 131.411 75.2555 152.889 101.75 152.889C128.244 152.889 149.722 131.411 149.722 104.917C149.722 78.422 128.244 56.9443 101.75 56.9443V56.9443ZM111.563 120.638L113.743 116.866L101.445 107.577C101.215 107.392 101.015 107.171 100.856 106.923C100.027 106.586 99.4609 105.809 99.3949 104.917L97.389 80.9305H90.8473L101.75 67.8471L112.653 80.9305H106.111L104.235 103.477L118.104 109.278L120.285 105.505L127.241 119.592L111.563 120.638Z" fill="#C5E0FF"/>
<path d="M101.75 65.6667C80.0725 65.6667 62.5002 83.24 62.5002 104.917C62.5002 126.594 80.0725 144.167 101.75 144.167C123.427 144.167 141 126.594 141 104.917C141 83.24 123.427 65.6667 101.75 65.6667V65.6667ZM111.563 120.639L113.743 116.866L101.445 107.578C101.215 107.392 101.016 107.171 100.856 106.923C100.028 106.586 99.4611 105.809 99.3951 104.917L97.3892 80.9307H90.8475L101.75 67.8473L112.653 80.9307H106.111L104.235 103.477L118.104 109.278L120.285 105.506L127.241 119.592L111.563 120.639Z" fill="white"/>
<path d="M127.241 119.635L111.563 120.638L113.743 116.866L101.445 107.577C100.453 106.822 100.183 105.446 100.812 104.372L127.241 119.635Z" fill="#C5E0FF"/>
<path d="M90.8474 80.9308H97.3891L99.395 104.917C99.476 106.154 100.51 107.111 101.75 107.097V67.8474L90.8474 80.9308Z" fill="#C5E0FF"/>
<path d="M108.292 104.917C108.292 108.529 105.363 111.458 101.75 111.458C98.1365 111.458 95.2085 108.529 95.2085 104.917C95.2085 101.304 98.1365 98.375 101.75 98.375C105.363 98.375 108.292 101.304 108.292 104.917Z" fill="#C5E0FF"/>
<path d="M99.5698 137.625C99.5698 154.485 85.9019 168.153 69.042 168.153C52.181 168.153 38.5142 154.485 38.5142 137.625C38.5142 120.765 52.181 107.097 69.042 107.097C85.9019 107.097 99.5698 120.765 99.5698 137.625Z" fill="#F9A100"/>
<path d="M90.8475 137.625C90.8475 149.668 81.084 159.43 69.0419 159.43C56.9988 159.43 47.2363 149.668 47.2363 137.625C47.2363 125.582 56.9988 115.819 69.0419 115.819C81.084 115.819 90.8475 125.582 90.8475 137.625Z" fill="white"/>
<path d="M166.077 78.0303L160.21 74.6508C160.414 73.0293 160.414 71.3875 160.21 69.7659L166.077 66.3865C167.076 65.7902 167.432 64.5136 166.883 63.4861L158.16 48.2222C157.873 47.7176 157.396 47.3481 156.835 47.1969C156.274 47.0457 155.676 47.1245 155.174 47.4152L149.33 50.883C147.999 49.9386 146.582 49.1219 145.099 48.4405V41.6806C145.099 40.4764 144.123 39.5 142.919 39.5H125.474C124.27 39.5 123.294 40.4764 123.294 41.6806V48.4405C121.764 49.1102 120.303 49.9279 118.933 50.883L113.198 47.5025C112.178 46.8956 110.86 47.215 110.232 48.2222L106.372 54.9822C104.846 54.7639 103.298 54.7639 101.75 54.7639C92.9929 54.7575 84.3888 57.0584 76.8037 61.4365H76.6738C69.143 65.8264 62.8782 72.0923 58.4872 79.6221V79.7317C53.9984 87.3669 51.6208 96.0593 51.5974 104.917C51.607 106.563 51.7017 108.208 51.8806 109.844C40.2868 116.895 34.2498 130.371 36.7072 143.715C39.1646 157.06 49.6064 167.501 62.9506 169.959C76.2958 172.416 89.7721 166.38 96.8216 154.786C98.4581 154.965 100.103 155.06 101.75 155.07C110.481 155.111 119.069 152.855 126.652 148.528H126.827C134.337 144.149 140.594 137.908 144.99 130.407C145.013 130.349 145.052 130.297 145.099 130.255C149.584 122.566 151.933 113.818 151.903 104.917C151.904 101.375 151.524 97.8448 150.769 94.3845L155.13 96.9143C155.462 97.1027 155.838 97.2007 156.221 97.1975C157.002 97.2007 157.726 96.7844 158.117 96.1072L166.839 81.0179C167.453 79.9819 167.112 78.6446 166.077 78.0303V78.0303ZM69.0419 165.972C53.3861 165.972 40.6946 153.281 40.6946 137.625C40.6946 121.969 53.3861 109.278 69.0419 109.278C84.6976 109.278 97.3891 121.969 97.3891 137.625C97.3891 153.281 84.6976 165.972 69.0419 165.972ZM126.477 143.403L124.297 139.697C123.694 138.649 122.357 138.287 121.309 138.89C120.262 139.492 119.901 140.83 120.502 141.878L122.683 145.584C116.218 148.946 109.037 150.703 101.75 150.708C100.856 150.708 99.9615 150.708 99.0458 150.708C104.455 138.369 101.744 123.975 92.2177 114.449C82.6906 104.923 68.2976 102.212 55.9585 107.621C55.9585 106.704 55.9585 105.789 55.9585 104.917C55.9596 97.6212 57.7174 90.4343 61.082 83.9619L64.7894 86.1424C65.1152 86.3266 65.4836 86.4246 65.8583 86.4257C66.6398 86.4288 67.3639 86.0125 67.7546 85.3354C68.0474 84.835 68.1294 84.2387 67.9825 83.6787C67.8355 83.1186 67.4714 82.6395 66.9699 82.3478L63.2625 80.1672C66.8155 74.6519 71.5067 69.9607 77.022 66.4077L79.2025 70.1151C79.4943 70.6155 79.9734 70.9807 80.5334 71.1277C81.0946 71.2746 81.6897 71.1926 82.1902 70.8998C83.2283 70.3014 83.5892 68.9769 82.9972 67.9346L80.8167 64.2272C93.9511 57.3938 109.592 57.3938 122.726 64.2272L120.546 67.9346C120.257 68.4403 120.182 69.0397 120.337 69.6009C120.493 70.162 120.866 70.6379 121.375 70.9222C121.875 71.215 122.471 71.297 123.032 71.149C123.592 71.002 124.071 70.6379 124.362 70.1364L126.542 66.4301C132.058 69.982 136.75 74.6743 140.302 80.1896L136.595 82.3701C135.567 82.9525 135.189 84.2483 135.745 85.2917C136.136 85.9689 136.86 86.3852 137.642 86.382C138.017 86.3809 138.384 86.283 138.71 86.0988L142.417 83.9182C145.468 89.7455 147.216 96.1668 147.542 102.736H143.181C141.977 102.736 141 103.713 141 104.917C141 106.121 141.977 107.097 143.181 107.097H147.542C147.244 113.644 145.533 120.049 142.526 125.872L138.82 123.691C137.777 123.099 136.453 123.46 135.853 124.498C135.547 125.002 135.457 125.609 135.604 126.179C135.752 126.751 136.126 127.238 136.639 127.529L140.345 129.71C136.754 135.212 132.026 139.882 126.477 143.403V143.403ZM142.264 75.3919C139.1 71.0755 135.273 67.2851 130.926 64.1622C131.96 63.7193 133.072 63.4893 134.197 63.4861C139.013 63.4861 142.919 67.3916 142.919 72.2084C142.914 73.3029 142.691 74.3847 142.264 75.3919ZM155.457 92.0517L150.245 89.0427C149.932 88.8649 149.58 88.767 149.221 88.7585C148.168 85.7325 146.832 82.812 145.23 80.0362C145.23 80.0362 145.23 80.0362 145.23 79.9276C145.188 79.8361 145.137 79.7477 145.077 79.6657C146.56 77.466 147.33 74.8617 147.28 72.2084C147.25 67.3735 144.555 62.9495 140.274 60.7029C135.992 58.4574 130.821 58.7566 126.827 61.4802H126.696C121.837 58.6587 116.536 56.6825 111.018 55.6359L112.914 52.3651L118.126 55.374C118.899 55.8222 119.867 55.753 120.568 55.2004C122.288 53.8216 124.206 52.7111 126.259 51.9072C127.098 51.5836 127.652 50.7786 127.655 49.8789V43.8611H140.738V49.8789C140.737 50.7733 141.281 51.5772 142.112 51.9072C144.167 52.7058 146.086 53.8163 147.803 55.2004C148.504 55.753 149.472 55.8222 150.245 55.374L155.457 52.3651L161.999 63.7044L156.787 66.7133C156.021 67.1562 155.6 68.0176 155.719 68.8939C156.097 71.0585 156.097 73.271 155.719 75.4356C155.6 76.3118 156.021 77.1732 156.787 77.6161L161.999 80.625L155.457 92.0517Z" fill="#2787F5"/>
<path d="M69.042 128.903C70.8477 128.903 72.3128 130.367 72.3128 132.174C72.3128 133.378 73.2892 134.354 74.4934 134.354C75.6976 134.354 76.6739 133.378 76.6739 132.174C76.6601 128.81 74.4454 125.851 71.2225 124.891V122.361C71.2225 121.157 70.2462 120.181 69.042 120.181C67.8378 120.181 66.8614 121.157 66.8614 122.361V124.891C63.2179 125.955 60.9149 129.541 61.4643 133.297C62.0137 137.052 65.2462 139.829 69.042 139.806C70.8477 139.806 72.3128 141.27 72.3128 143.076C72.3128 144.883 70.8477 146.347 69.042 146.347C67.2351 146.347 65.7711 144.883 65.7711 143.076C65.7711 141.872 64.7948 140.896 63.5906 140.896C62.3864 140.896 61.41 141.872 61.41 143.076C61.4228 146.44 63.6374 149.399 66.8614 150.359V152.889C66.8614 154.093 67.8378 155.069 69.042 155.069C70.2462 155.069 71.2225 154.093 71.2225 152.889V150.359C74.866 149.295 77.1679 145.709 76.6185 141.953C76.0702 138.198 72.8366 135.421 69.042 135.444C67.2351 135.444 65.7711 133.98 65.7711 132.174C65.7711 130.367 67.2351 128.903 69.042 128.903Z" fill="#2787F5"/>
<path d="M69.0418 113.639C55.7945 113.639 45.0557 124.378 45.0557 137.625C45.0557 150.872 55.7945 161.611 69.0418 161.611C82.288 161.611 93.0279 150.872 93.0279 137.625C93.0279 124.378 82.288 113.639 69.0418 113.639ZM69.0418 157.25C58.2029 157.25 49.4168 148.464 49.4168 137.625C49.4168 126.786 58.2029 118 69.0418 118C79.8796 118 88.6668 126.786 88.6668 137.625C88.6668 148.464 79.8796 157.25 69.0418 157.25Z" fill="#2787F5"/>
<path d="M122.225 104.567C121.867 103.855 121.147 103.395 120.35 103.369C119.545 103.341 118.79 103.76 118.388 104.459L117.166 106.639L110.341 103.761C110.011 101.452 108.771 99.3706 106.896 97.9822L108.117 83.1111H112.653C113.499 83.1122 114.27 82.6235 114.63 81.8569C114.99 81.0913 114.873 80.1853 114.332 79.5347L103.429 66.4514C103.014 65.952 102.399 65.6624 101.75 65.6624C101.101 65.6624 100.485 65.952 100.071 66.4514L89.1683 79.5347C88.6264 80.1853 88.5092 81.0913 88.8691 81.8569C89.229 82.6235 89.9999 83.1122 90.8474 83.1111H95.3821L96.6033 97.8948C93.5752 100.128 92.3188 104.05 93.4879 107.626C94.657 111.203 97.9874 113.626 101.75 113.639C102.863 113.634 103.965 113.419 104.999 113.006L110.887 117.368L109.665 119.548C109.275 120.224 109.276 121.057 109.667 121.733C110.059 122.408 110.781 122.822 111.563 122.819H111.693L127.393 121.816C128.119 121.767 128.773 121.359 129.136 120.729C129.5 120.099 129.525 119.329 129.203 118.676L122.225 104.567ZM99.5696 80.756C99.4781 79.621 98.5283 78.7468 97.3891 78.75H95.513L101.75 71.249L107.986 78.75H106.111C104.972 78.7468 104.021 79.621 103.931 80.756L102.643 96.1945C102.339 96.1945 102.055 96.1945 101.75 96.1945C101.445 96.1945 101.161 96.1945 100.856 96.1945L99.5696 80.756ZM97.3891 104.917C97.3933 103.239 98.3601 101.713 99.8741 100.992C101.024 100.467 102.344 100.467 103.494 100.992C105.059 101.675 106.083 103.209 106.111 104.917V105.156C106.035 106.51 105.334 107.751 104.214 108.514C102.879 109.429 101.148 109.529 99.7166 108.774C98.2845 108.019 97.3891 106.535 97.3891 104.917ZM115.487 118.218L115.618 117.956C116.159 117.009 115.917 115.807 115.051 115.143L108.509 110.26C109.025 109.598 109.437 108.864 109.73 108.079L117.166 111.219C118.176 111.64 119.342 111.249 119.892 110.303L120.044 110.041L123.752 117.564L115.487 118.218Z" fill="#2787F5"/>
</g>
<defs>
<clipPath id="clip0_4_740">
<rect width="181.194" height="164.72" fill="white" transform="translate(0.569092 58.4113) rotate(-18.7265)"/>
</clipPath>
<clipPath id="clip1_4_740">
<rect width="131" height="131" fill="white" transform="translate(36 39.5)"/>
</clipPath>
</defs>
</svg>
