<svg width="60" height="60" viewBox="0 0 60 60" fill="none" xmlns="http://www.w3.org/2000/svg">
<path opacity="0.1" d="M50.5644 24.7355C42.1576 34.2031 32.0305 45.7178 24.0541 54.8058C18.7875 60.8047 8.89951 57.7568 7.92817 49.83L4.61087 22.7515C3.98162 17.6092 7.70072 12.9525 12.8558 12.4274L42.7163 9.39963C51.0996 8.5526 56.159 18.4354 50.5644 24.7355Z" fill="#0087F3"/>
<g clip-path="url(#clip0_1_1333)">
<path d="M31.0171 30.3071L32.8522 29.6954L33.8197 32.5983L31.9846 33.21L31.0171 30.3071Z" fill="#2787F5"/>
<path d="M28.0645 44.5161H30.0002V46.4515H28.0645V44.5161Z" fill="#2787F5"/>
<path d="M29.0319 31.9353C24.7631 31.9353 21.29 27.1594 21.29 21.2902V20.3224C21.29 16.0537 24.7631 12.5806 29.0319 12.5806C33.3006 12.5806 36.7737 16.0537 36.7737 20.3224V21.2902C36.7737 27.1594 33.3006 31.9353 29.0319 31.9353ZM29.0319 14.5159C25.8295 14.5159 23.2254 17.12 23.2254 20.3224V21.2902C23.2254 26.092 25.8295 29.9999 29.0319 29.9999C32.2342 29.9999 34.8383 26.092 34.8383 21.2902V20.3224C34.8383 17.12 32.2342 14.5159 29.0319 14.5159Z" fill="#2787F5"/>
<path d="M33.8706 41.6127C33.7487 41.6127 33.6267 41.5904 33.5116 41.544L29.032 39.7518L24.5531 41.544C24.2795 41.6524 23.9737 41.6329 23.7192 41.4876C23.4637 41.3444 23.2875 41.0928 23.239 40.8036L22.2715 34.9972C22.2201 34.6892 22.3207 34.3748 22.5412 34.1541L24.4769 32.2187C24.8175 31.8771 25.3565 31.8374 25.7417 32.1287L29.032 34.5963L32.3222 32.1287C32.7064 31.8384 33.2465 31.8771 33.5871 32.2187L35.5228 34.1541C35.7443 34.3759 35.8439 34.6892 35.7925 34.9972L34.825 40.8036C34.7764 41.0928 34.6003 41.3444 34.3448 41.4876C34.1987 41.5709 34.0354 41.6127 33.8706 41.6127ZM29.032 37.7416C29.1539 37.7416 29.2758 37.764 29.392 37.8104L33.1139 39.2996L33.8018 35.1694L32.813 34.1803L29.6125 36.5803C29.2691 36.8397 28.7949 36.8397 28.4515 36.5803L25.252 34.1813L24.2621 35.1705L24.95 39.3006L28.6719 37.8114C28.7882 37.764 28.9101 37.7416 29.032 37.7416Z" fill="#2787F5"/>
<path d="M14.5159 49.3546H12.5806V43.5481C12.5806 40.7484 14.2275 38.2545 16.9864 36.8755L22.7929 33.9723L23.659 35.7035L17.8526 38.6067C15.7634 39.6519 14.5159 41.4983 14.5159 43.5481V49.3546Z" fill="#2787F5"/>
<path d="M45.4835 49.3547H43.5482V43.5483C43.5482 41.4984 42.3007 39.652 40.2122 38.608L34.4058 35.7047L35.2719 33.9735L41.0784 36.8767C43.8366 38.2557 45.4835 40.7496 45.4835 43.5483V49.3547Z" fill="#2787F5"/>
<path d="M31.9351 21.2902H29.9997C28.5392 21.2902 27.1971 20.7696 26.1286 19.8057C25.0601 20.7696 23.718 21.2902 22.2575 21.2902C21.7235 21.2902 21.29 20.8565 21.29 20.3224C21.29 19.7883 21.7235 19.3545 22.2575 19.3545C23.4809 19.3545 24.5831 18.8003 25.3642 17.7938C25.7299 17.3214 26.5273 17.3214 26.8931 17.7938C27.6742 18.8003 28.7763 19.3545 29.9997 19.3545H31.9351C32.4702 19.3545 32.9029 19.7883 32.9029 20.3224C32.9029 20.8565 32.4702 21.2902 31.9351 21.2902Z" fill="#2787F5"/>
<path d="M18.3867 44.5161H20.3221V49.3547H18.3867V44.5161Z" fill="#2787F5"/>
<path d="M37.7417 44.5161H39.6771V49.3547H37.7417V44.5161Z" fill="#2787F5"/>
<path d="M45.4834 24.1935C45.2318 24.1935 44.9841 24.0947 44.7994 23.91L41.2119 20.3225H39.677C39.1418 20.3225 38.7095 19.889 38.7095 19.3546C38.7095 18.8205 39.1418 18.3871 39.677 18.3871H41.6127C41.87 18.3871 42.1159 18.4884 42.2967 18.6706L44.5159 20.8895V19.3546C44.5159 18.8205 44.9483 18.3871 45.4834 18.3871C46.0186 18.3871 46.4513 18.8205 46.4513 19.3546V23.2257C46.4513 23.6166 46.216 23.9699 45.8541 24.1198C45.7343 24.1691 45.6085 24.1935 45.4834 24.1935Z" fill="#2787F5"/>
<path d="M49.3546 20.3223C48.8195 20.3223 48.3868 19.8889 48.3868 19.3545C48.3868 18.8204 48.8195 18.3869 49.3546 18.3869C49.8887 18.3869 50.3225 17.9525 50.3225 17.4191V5.80618C50.3225 5.27281 49.8887 4.83832 49.3546 4.83832H29.9999C29.4665 4.83832 29.032 5.27281 29.032 5.80618V9.67727C29.032 10.2113 28.5986 10.6448 28.0642 10.6448C27.5301 10.6448 27.0967 10.2113 27.0967 9.67727V5.80618C27.0967 4.20537 28.3991 2.90295 29.9999 2.90295H49.3546C50.9554 2.90295 52.2579 4.20537 52.2579 5.80618V17.4191C52.2579 19.0199 50.9554 20.3223 49.3546 20.3223Z" fill="#2787F5"/>
<path d="M34.8384 10.6447H36.7737V12.5804H34.8384V10.6447Z" fill="#F9A100"/>
<path d="M38.7095 10.6447H40.6448V12.5804H38.7095V10.6447Z" fill="#F9A100"/>
<path d="M42.5806 10.6447H44.5163V12.5804H42.5806V10.6447Z" fill="#F9A100"/>
<path d="M12.5805 33.8707C12.4554 33.8707 12.3296 33.8476 12.2098 33.7973C11.8486 33.6481 11.6126 33.294 11.6126 32.9031V29.9999H8.70938C7.10856 29.9999 5.80615 28.6972 5.80615 27.0967V15.4838C5.80615 13.883 7.10856 12.5806 8.70938 12.5806H20.3223C20.8564 12.5806 21.2901 13.014 21.2901 13.5481C21.2901 14.0825 20.8564 14.5159 20.3223 14.5159H8.70938C8.17601 14.5159 7.74152 14.9504 7.74152 15.4838V27.0967C7.74152 27.6308 8.17601 28.0642 8.70938 28.0642H12.5805C13.1145 28.0642 13.548 28.4969 13.548 29.0321V30.567L15.7672 28.3477C15.948 28.1659 16.195 28.0642 16.4512 28.0642H20.3223C20.8564 28.0642 21.2901 28.4969 21.2901 29.0321C21.2901 29.5672 20.8564 29.9999 20.3223 29.9999H16.852L13.2645 33.5871C13.0798 33.7721 12.8321 33.8707 12.5805 33.8707Z" fill="#2787F5"/>
<path d="M9.67725 16.451H19.3544V18.3868H9.67725V16.451Z" fill="#F9A100"/>
<path d="M9.67725 20.3223H19.3544V22.2576H9.67725V20.3223Z" fill="#F9A100"/>
<path d="M9.67725 24.1935H11.6126V26.1288H9.67725V24.1935Z" fill="#F9A100"/>
<path d="M13.5479 24.1935H15.4836V26.1288H13.5479V24.1935Z" fill="#F9A100"/>
</g>
<defs>
<clipPath id="clip0_1_1333">
<rect width="46.4516" height="46.4516" fill="white" transform="translate(5.80664 2.9032)"/>
</clipPath>
</defs>
</svg>
