<svg width="60" height="60" viewBox="0 0 60 60" fill="none" xmlns="http://www.w3.org/2000/svg">
<path opacity="0.1" d="M50.8626 39.7616C38.3453 41.6653 23.1962 44.0429 11.2524 45.93C3.36736 47.1746 -2.28617 38.5086 2.03558 31.793L16.7997 8.85242C19.604 4.49636 25.4411 3.29414 29.7404 6.18666L54.6347 22.9523C61.6219 27.6615 59.1926 38.4951 50.8626 39.7616Z" fill="#0087F3"/>
<g clip-path="url(#clip0_1_1356)">
<path d="M4.91641 53.0705C5.49399 53.0705 5.96221 52.6023 5.96221 52.0247C5.96221 51.4471 5.49399 50.9789 4.91641 50.9789C4.33883 50.9789 3.87061 51.4471 3.87061 52.0247C3.87061 52.6023 4.33883 53.0705 4.91641 53.0705Z" fill="#F9A100"/>
<path d="M31.6277 26.5451C32.2041 26.5451 32.6714 26.0778 32.6714 25.5014C32.6714 24.9249 32.2041 24.4576 31.6277 24.4576C31.0513 24.4576 30.584 24.9249 30.584 25.5014C30.584 26.0778 31.0513 26.5451 31.6277 26.5451Z" fill="#F9A100"/>
<path d="M45.2952 12.2702C44.4561 11.4311 43.3406 10.9691 42.154 10.9691C40.9675 10.9691 39.8518 11.4313 39.0129 12.2702C37.2809 14.0024 37.2809 16.8206 39.0129 18.5527C39.879 19.4187 41.0163 19.8516 42.154 19.8516C43.2914 19.8516 44.4292 19.4185 45.2952 18.5527C47.0272 16.8205 47.0272 14.0023 45.2952 12.2702ZM43.8193 17.0766C42.9011 17.9947 41.4069 17.9947 40.4889 17.0766C39.5706 16.1584 39.5706 14.6644 40.4889 13.7461C40.9337 13.3013 41.525 13.0564 42.154 13.0564C42.7831 13.0564 43.3744 13.3013 43.8192 13.7461C44.7375 14.6644 44.7375 16.1584 43.8193 17.0766Z" fill="#F9A100"/>
<path d="M16.9075 42.7729C16.3915 42.5159 15.765 42.726 15.508 43.2419L14.2649 45.7385C13.7243 46.8239 12.6372 47.5497 11.4273 47.6325L9.98149 47.7314C9.73708 47.7477 9.57637 47.626 9.50204 47.5517C9.42771 47.4774 9.30566 47.3163 9.3223 47.0721L9.42126 45.6264C9.50412 44.4167 10.2299 43.3294 11.3153 42.7888L13.8117 41.5457C14.3277 41.2887 14.5377 40.6622 14.2807 40.1462C14.0238 39.6303 13.3973 39.4202 12.8813 39.6772L10.3848 40.9203C8.6392 41.7896 7.47197 43.5381 7.3387 45.4838L7.23973 46.9295C7.1863 47.7099 7.4728 48.4746 8.02585 49.0277C8.53503 49.5368 9.22375 49.8202 9.93897 49.8202C10.0004 49.8202 10.0623 49.8181 10.124 49.8139L11.5698 49.7149C13.5155 49.5817 15.264 48.4146 16.1333 46.6688L17.3764 44.1724C17.6334 43.6563 17.4234 43.0299 16.9075 42.7729Z" fill="#F9A100"/>
<path d="M56.3751 0.850495C55.8854 0.368032 55.2107 0.115729 54.5254 0.160326L53.5536 0.222284C44.8401 0.778557 36.6854 4.98454 31.1806 11.7619L28.8931 14.578L22.907 14.4022C22.8968 14.4019 22.8865 14.4018 22.8764 14.4018C18.1289 14.4018 13.6656 16.2505 10.3085 19.6075L4.17733 25.7388C3.88573 26.0304 3.79311 26.4665 3.94114 26.8513C4.08917 27.2363 4.4499 27.498 4.86178 27.519L17.8401 28.1858L17.311 28.8373C17.0444 29.1657 17.0022 29.6225 17.2043 29.994C17.4077 30.3678 17.6208 30.7357 17.8431 31.0977L14.7653 34.7515C14.5022 35.0639 14.4455 35.5011 14.6201 35.8704C15.2924 37.2909 16.1846 38.5673 17.2724 39.6641C18.3866 40.7876 19.6895 41.7064 21.1447 42.3951C21.2869 42.4625 21.4394 42.4954 21.591 42.4954C21.8261 42.4954 22.0591 42.416 22.2487 42.2623C22.9118 41.7244 23.6762 41.0864 24.4155 40.4695C24.9425 40.0298 25.4816 39.58 25.9855 39.1652C26.2862 39.3462 26.5907 39.5216 26.8998 39.6897C27.0561 39.7748 27.2275 39.8167 27.3983 39.8167C27.6256 39.8167 27.8514 39.7427 28.0383 39.5975L28.7497 39.0455L29.4194 52.0786C29.4406 52.4904 29.7022 52.8512 30.0871 52.9992C30.2089 53.046 30.3355 53.0689 30.4613 53.0689C30.7332 53.0689 31.0001 52.9625 31.1995 52.763L37.3308 46.6318C40.6878 43.2747 42.5365 38.8114 42.5365 34.0638V28.3467L44.9553 26.4698C52.2041 20.8447 56.6188 12.3624 57.0675 3.19784L57.0923 2.6899C57.1262 2.00337 56.8646 1.33306 56.3751 0.850495ZM7.31308 25.555L11.7845 21.0836C14.7436 18.1245 18.6771 16.4932 22.8614 16.4891L27.2364 16.6176L19.4698 26.1795L7.31308 25.555ZM23.0782 38.8668C22.5334 39.3213 21.9748 39.7875 21.4565 40.2138C20.4539 39.6708 19.547 38.9933 18.7544 38.1941C17.9868 37.4202 17.3335 36.5389 16.8066 35.5682L19.06 32.8931C19.7413 33.8071 20.4871 34.673 21.2928 35.4842C21.2934 35.4848 21.294 35.4853 21.2946 35.4859C21.2948 35.4861 21.295 35.4865 21.2952 35.4867C21.2956 35.487 21.2959 35.4872 21.2962 35.4875C22.1895 36.3865 23.1504 37.2115 24.1697 37.9576C23.8098 38.2564 23.441 38.5641 23.0782 38.8668ZM40.4495 34.0638C40.4495 38.2538 38.8179 42.1929 35.855 45.1558L31.3836 49.6272L30.7597 37.4859L40.4494 29.9667V34.0638H40.4495ZM54.9829 3.09585C54.5641 11.6512 50.4428 19.5696 43.6759 24.8207L27.3069 37.5231C25.9494 36.7299 24.6841 35.7933 23.5262 34.7323L29.0448 29.2136C29.4523 28.8061 29.4523 28.1451 29.0448 27.7375C28.6372 27.3299 27.9763 27.3299 27.5687 27.7375L22.0553 33.251C21.0416 32.1288 20.1438 30.9077 19.3794 29.6017L32.8009 13.0779C37.9396 6.75118 45.5522 2.82474 53.6865 2.30558L54.6583 2.24362C54.7856 2.23572 54.8709 2.29892 54.9102 2.33759C54.9493 2.37616 55.0141 2.46006 55.0079 2.58803L54.9829 3.09585Z" fill="#2787F5"/>
</g>
<defs>
<clipPath id="clip0_1_1356">
<rect width="53.2258" height="53.2258" fill="white" transform="translate(3.87109)"/>
</clipPath>
</defs>
</svg>
