<svg width="60" height="60" viewBox="0 0 60 60" fill="none" xmlns="http://www.w3.org/2000/svg">
<path opacity="0.1" d="M38.4968 49.2948C28.7735 44.5615 16.9701 38.8847 7.65802 34.4179C1.5109 31.4682 1.73988 22.6335 8.03564 20.0086L29.5427 11.0424C33.6271 9.34026 38.3139 11.3264 39.9333 15.4453L49.3022 39.3071C51.9301 46.007 44.9673 52.4449 38.4968 49.2948Z" fill="#0087F3"/>
<g clip-path="url(#clip0_1_1375)">
<path d="M37.0819 27.6979C37.0819 24.0452 34.1102 21.0734 30.4574 21.0734C26.8046 21.0734 23.833 24.0452 23.833 27.6979C23.833 31.3507 26.8047 34.3223 30.4574 34.3223C34.1101 34.3223 37.0819 31.3507 37.0819 27.6979ZM30.4574 22.5539C30.7884 22.713 31.5276 24.1733 31.6412 26.9607H29.2736C29.3873 24.1733 30.1265 22.713 30.4574 22.5539ZM31.6412 28.4353C31.5275 31.2227 30.7883 32.683 30.4574 32.842C30.1265 32.6829 29.3873 31.2226 29.2736 28.4353H31.6412ZM32.3841 32.4723C32.8179 31.3723 33.0564 29.9083 33.1158 28.4354H35.5535C35.2891 30.2713 34.0528 31.7965 32.3841 32.4723ZM35.5536 26.9606H33.1159C33.0564 25.4877 32.818 24.0235 32.3842 22.9236C34.0527 23.5995 35.2891 25.1246 35.5536 26.9606ZM28.5307 22.9236C28.0969 24.0235 27.8584 25.4877 27.799 26.9606H25.3613C25.6258 25.1246 26.8622 23.5994 28.5307 22.9236ZM25.3613 28.4353H27.799C27.8585 29.9082 28.0969 31.3722 28.5307 32.4722C26.8622 31.7965 25.6258 30.2713 25.3613 28.4353Z" fill="#2787F5"/>
<path d="M31.9254 41.094H33.5206C34.6604 41.094 35.6264 40.3369 35.9429 39.2994H38.5067C40.5935 39.2994 42.2911 37.6017 42.2911 35.515V31.9583C42.9354 31.8192 43.528 31.4992 44.0068 31.0214C44.6612 30.3655 45.0216 29.4947 45.0216 28.5696C45.0216 26.6573 43.4659 25.1016 41.5537 25.1016H40.228C39.061 20.7134 35.0466 17.5875 30.4573 17.5875C25.8682 17.5875 21.854 20.7131 20.6866 25.1016H19.3609C17.4487 25.1016 15.8931 26.6573 15.8931 28.5696C15.8931 29.4948 16.2535 30.3656 16.909 31.0227C17.5648 31.6771 18.4356 32.0375 19.3609 32.0375H21.8045C22.0512 32.0375 22.2815 31.9142 22.4182 31.7088C22.5549 31.5036 22.58 31.2435 22.4848 31.0159C22.0446 29.9623 21.8214 28.846 21.8214 27.6982C21.8214 27.5433 21.8263 27.3886 21.8346 27.2339C21.857 26.8138 21.909 26.3955 21.9916 25.9851C22.8029 21.9738 26.3632 19.0623 30.4574 19.0623C34.5516 19.0623 38.1119 21.9739 38.923 25.9845C39.036 26.5461 39.0932 27.1227 39.0932 27.6982C39.0932 28.8498 38.8702 29.9657 38.4302 31.015C38.3347 31.2426 38.3595 31.503 38.4962 31.7084C38.6329 31.9139 38.8633 32.0375 39.1101 32.0375H40.8163V35.5152C40.8163 36.7888 39.7802 37.8248 38.5067 37.8248H35.9429C35.6264 36.7873 34.6604 36.0302 33.5206 36.0302H31.9254C30.5292 36.0302 29.3935 37.166 29.3935 38.5622C29.3935 39.9584 30.5292 41.094 31.9254 41.094ZM19.3609 30.5626C18.8289 30.5626 18.3281 30.3552 17.9518 29.9797C17.5752 29.6022 17.3678 29.1014 17.3678 28.5694C17.3678 27.4703 18.2619 26.5762 19.3609 26.5762H20.4087C20.2658 27.8677 20.3646 29.229 20.7602 30.5625H19.3609V30.5626ZM40.506 26.5762H41.5537C42.6527 26.5762 43.5468 27.4703 43.5468 28.5694C43.5468 29.1014 43.3394 29.6022 42.964 29.9786C42.5865 30.3552 42.0857 30.5626 41.5537 30.5626H40.1553C40.5436 29.2536 40.6513 27.891 40.506 26.5762ZM31.9254 37.5047H33.5206C34.1036 37.5047 34.5779 37.979 34.5779 38.562C34.5779 39.1451 34.1036 39.6192 33.5206 39.6192H31.9254C31.3424 39.6192 30.8682 39.145 30.8682 38.562C30.8682 37.9791 31.3424 37.5047 31.9254 37.5047Z" fill="#F9A100"/>
<path d="M57.6777 7.83563H44.6209C43.6015 7.83563 42.7722 8.66494 42.7722 9.68429V14.3117H11.0875C10.0401 14.3117 9.18799 15.1638 9.18799 16.2112V19.8784C9.18799 20.2856 9.51814 20.6158 9.92537 20.6158C10.3326 20.6158 10.6627 20.2856 10.6627 19.8784V16.2112C10.6627 15.977 10.8533 15.7864 11.0875 15.7864H42.7722V17.7642C42.7722 18.7835 43.6015 19.6128 44.6209 19.6128H45.7935V22.9706C45.7935 23.3873 46.0257 23.7606 46.3995 23.9448C46.5532 24.0205 46.7176 24.0577 46.8809 24.0577C47.1148 24.0577 47.3466 23.9813 47.5411 23.8317L50.252 21.7485V42.8954H45.7128C45.3055 42.8954 44.9754 43.2255 44.9754 43.6328C44.9754 44.04 45.3055 44.3701 45.7128 44.3701H50.2519V46.6395C50.2519 46.8736 50.0613 47.064 49.827 47.064H11.0873C10.8532 47.064 10.6627 46.8736 10.6627 46.6395V44.37H42.2717C42.6789 44.37 43.0091 44.0399 43.0091 43.6327C43.0091 43.2254 42.6789 42.8953 42.2717 42.8953H10.6627V23.3198C10.6627 22.9125 10.3326 22.5824 9.92537 22.5824C9.51814 22.5824 9.18799 22.9125 9.18799 23.3198V46.6393C9.18799 47.6866 10.04 48.5386 11.0873 48.5386H26.7558L25.9291 52.1744H20.5838C20.1766 52.1744 19.8464 52.5046 19.8464 52.9118C19.8464 53.3191 20.1766 53.6492 20.5838 53.6492H26.5158L26.5183 53.6493L26.52 53.6492H34.3943L34.396 53.6493L34.3985 53.6492H40.3305C40.7377 53.6492 41.0679 53.3191 41.0679 52.9118C41.0679 52.5046 40.7377 52.1744 40.3305 52.1744H34.9852L34.1586 48.5386H49.827C50.8744 48.5386 51.7266 47.6866 51.7266 46.6393V20.6151L53.0309 19.6127H57.6776C58.6969 19.6127 59.5262 18.7834 59.5262 17.7641V9.68429C59.5263 8.66494 58.697 7.83563 57.6777 7.83563ZM33.4729 52.1745H27.4415L28.2682 48.5387H32.6462L33.4729 52.1745ZM58.0516 17.7642C58.0516 17.9703 57.8838 18.1381 57.6777 18.1381H52.9778C52.689 18.1381 52.4036 18.235 52.1746 18.4111L47.2682 22.1815V19.4564C47.2682 18.7295 46.6768 18.1381 45.9498 18.1381H44.6208C44.4146 18.1381 44.2469 17.9703 44.2469 17.7642V9.68429C44.2469 9.47812 44.4146 9.31039 44.6208 9.31039H57.6777C57.8838 9.31039 58.0516 9.47812 58.0516 9.68429V17.7642Z" fill="#2787F5"/>
<path d="M47.8668 12.9868H47.7506C47.3433 12.9868 47.0132 13.317 47.0132 13.7242C47.0132 14.1314 47.3433 14.4616 47.7506 14.4616H47.8668C48.274 14.4616 48.6041 14.1314 48.6041 13.7242C48.6041 13.317 48.274 12.9868 47.8668 12.9868Z" fill="#F9A100"/>
<path d="M51.2071 12.9868H51.0909C50.6837 12.9868 50.3535 13.317 50.3535 13.7242C50.3535 14.1314 50.6837 14.4616 51.0909 14.4616H51.2071C51.6143 14.4616 51.9445 14.1314 51.9445 13.7242C51.9445 13.317 51.6143 12.9868 51.2071 12.9868Z" fill="#F9A100"/>
<path d="M54.5474 12.9868H54.4312C54.024 12.9868 53.6938 13.317 53.6938 13.7242C53.6938 14.1314 54.024 14.4616 54.4312 14.4616H54.5474C54.9547 14.4616 55.2848 14.1314 55.2848 13.7242C55.2848 13.317 54.9547 12.9868 54.5474 12.9868Z" fill="#F9A100"/>
</g>
<defs>
<clipPath id="clip0_1_1375">
<rect width="50.3383" height="50.3383" fill="white" transform="translate(9.18799 5.57324)"/>
</clipPath>
</defs>
</svg>
