<svg width="60" height="60" viewBox="0 0 60 60" fill="none" xmlns="http://www.w3.org/2000/svg">
<path opacity="0.1" d="M50.8626 39.7616C38.3453 41.6653 23.1962 44.0429 11.2524 45.93C3.36736 47.1746 -2.28617 38.5086 2.03558 31.793L16.7997 8.85242C19.604 4.49636 25.4411 3.29414 29.7404 6.18666L54.6347 22.9523C61.6219 27.6615 59.1926 38.4951 50.8626 39.7616Z" fill="#0087F3"/>
<g clip-path="url(#clip0_1_1323)">
<path d="M52.9837 40.9478V15.1059C52.9837 13.5801 51.7423 12.3387 50.2165 12.3387H43.6389V11.4315C43.6389 9.9307 42.4179 8.70972 40.9171 8.70972C39.4163 8.70972 38.1954 9.9307 38.1954 11.4315V12.3387H23.4978V11.4315C23.4978 9.9307 22.2768 8.70972 20.776 8.70972C19.2752 8.70972 18.0542 9.9307 18.0542 11.4315V12.3387H11.4766C9.95087 12.3387 8.70947 13.5801 8.70947 15.1059V48.7652C8.70947 50.291 9.95087 51.5323 11.4766 51.5323H23.8426C24.3436 51.5323 24.7499 51.1261 24.7499 50.625C24.7499 50.124 24.3436 49.7178 23.8426 49.7178H11.4766C10.9513 49.7178 10.524 49.2905 10.524 48.7652V15.1059C10.524 14.5806 10.9513 14.1533 11.4766 14.1533H18.0542V15.0605C18.0542 16.5613 19.2752 17.7823 20.776 17.7823C22.2768 17.7823 23.4978 16.5613 23.4978 15.0605V14.1533H38.1954V15.0605C38.1954 16.5613 39.4163 17.7823 40.9171 17.7823C42.4179 17.7823 43.6389 16.5613 43.6389 15.0605V14.1533H50.2165C50.7418 14.1533 51.1692 14.5806 51.1692 15.1059V19.5968H16.8748C16.3738 19.5968 15.9675 20.003 15.9675 20.5041C15.9675 21.0052 16.3738 21.4113 16.8748 21.4113H51.1692V39.4147C50.3967 38.9275 49.5412 38.561 48.6288 38.3413V24.8589C48.6288 24.3578 48.2226 23.9517 47.7216 23.9517H13.9716C13.4706 23.9517 13.0643 24.3578 13.0643 24.8589V46.2702C13.0643 46.7713 13.4706 47.1775 13.9716 47.1775H38.1225C38.1788 48.0679 38.3722 48.9217 38.6822 49.7178H31.1006C30.5996 49.7178 30.1933 50.124 30.1933 50.625C30.1933 51.1261 30.5996 51.5323 31.1006 51.5323H39.6563C41.2011 53.7255 43.7523 55.1613 46.6329 55.1613C51.3354 55.1613 55.1611 51.3356 55.1611 46.6331C55.1611 44.4508 54.3368 42.4577 52.9837 40.9478ZM21.6833 15.0605C21.6833 15.5608 21.2763 15.9678 20.776 15.9678C20.2757 15.9678 19.8687 15.5608 19.8687 15.0605V11.4315C19.8687 10.9312 20.2757 10.5242 20.776 10.5242C21.2763 10.5242 21.6833 10.9312 21.6833 11.4315V15.0605ZM41.8244 15.0605C41.8244 15.5608 41.4174 15.9678 40.9171 15.9678C40.4169 15.9678 40.0099 15.5608 40.0099 15.0605V11.4315C40.0099 10.9312 40.4169 10.5242 40.9171 10.5242C41.4174 10.5242 41.8244 10.9312 41.8244 11.4315V15.0605ZM46.6329 38.1049C46.2111 38.1049 45.7965 38.1362 45.3908 38.1956H41.8788V32.9335H46.8143V38.1071C46.754 38.1059 46.6936 38.1049 46.6329 38.1049ZM38.1993 45.3629H35.1288V40.0101H40.0643V41.1999C39.0969 42.3675 38.4342 43.7962 38.1993 45.3629ZM14.8788 32.9335H19.8143V38.1956H14.8788V32.9335ZM21.6288 32.9335H26.5643V38.1956H21.6288V32.9335ZM35.1288 32.9335H40.0643V38.1956H35.1288V32.9335ZM33.3143 38.1956H28.3788V32.9335H33.3143V38.1956ZM35.1288 31.119V25.7662H40.0643V31.119H35.1288ZM33.3143 31.119H28.3788V25.7662H33.3143V31.119ZM26.5643 31.119H21.6288V25.7662H26.5643V31.119ZM26.5643 40.0101V45.3629H21.6288V40.0101H26.5643ZM28.3788 40.0101H33.3143V45.3629H28.3788V40.0101ZM46.8143 31.119H41.8788V25.7662H46.8143V31.119ZM19.8143 25.7662V31.119H14.8788V25.7662H19.8143ZM14.8788 40.0101H19.8143V45.3629H14.8788V40.0101ZM46.6329 53.3468C42.9309 53.3468 39.9192 50.3351 39.9192 46.6331C39.9192 42.9311 42.9309 39.9194 46.6329 39.9194C50.3348 39.9194 53.3466 42.9311 53.3466 46.6331C53.3466 50.3351 50.3348 53.3468 46.6329 53.3468Z" fill="#2787F5"/>
<path d="M49.2578 44.4341L46.4517 47.2401L45.2031 45.9916C44.8489 45.6373 44.2747 45.6373 43.92 45.9916C43.5657 46.3458 43.5657 46.9203 43.92 47.2746L45.8101 49.1647C45.9803 49.3348 46.211 49.4304 46.4516 49.4304C46.6922 49.4304 46.9229 49.3348 47.0931 49.1647L50.5407 45.7171C50.895 45.3628 50.895 44.7883 50.5407 44.434C50.1864 44.0798 49.6121 44.0798 49.2578 44.4341Z" fill="#F9A100"/>
<path d="M27.4722 49.7178C27.2336 49.7178 26.9995 49.8148 26.8308 49.9836C26.6621 50.1523 26.5649 50.3864 26.5649 50.625C26.5649 50.8636 26.662 51.0977 26.8308 51.2665C26.9995 51.4352 27.2336 51.5323 27.4722 51.5323C27.7108 51.5323 27.9449 51.4352 28.1136 51.2665C28.2823 51.0977 28.3795 50.8636 28.3795 50.625C28.3795 50.3864 28.2824 50.1523 28.1136 49.9836C27.9449 49.8148 27.7108 49.7178 27.4722 49.7178Z" fill="#F9A100"/>
<path d="M13.8875 21.1455C14.0563 20.9767 14.1534 20.7427 14.1534 20.5041C14.1534 20.2655 14.0563 20.0314 13.8875 19.8626C13.7188 19.6939 13.4847 19.5968 13.2461 19.5968C13.0065 19.5968 12.7734 19.6939 12.6047 19.8626C12.4359 20.0314 12.3389 20.2655 12.3389 20.5041C12.3389 20.7427 12.4359 20.9767 12.6047 21.1455C12.7735 21.3142 13.0065 21.4113 13.2461 21.4113C13.4847 21.4113 13.7188 21.3142 13.8875 21.1455Z" fill="#F9A100"/>
</g>
<defs>
<clipPath id="clip0_1_1323">
<rect width="46.4516" height="46.4516" fill="white" transform="translate(8.70947 8.70972)"/>
</clipPath>
</defs>
</svg>
